<svg width="34.010742" height="34.010742" viewBox="0 0 34.0107 34.0107" fill="none" xmlns="http://www.w3.org/2000/svg" xmlns:xlink="http://www.w3.org/1999/xlink">
	<desc>
			Created with Pixso.
	</desc>
	<defs/>
	<rect id="Rectangle 2" rx="10.000000" width="34.010742" height="34.010742" fill="#ffffff" fill-opacity="1.000000"/>
	<path id="Vector" d="M20.645 16.6675L20.6916 16.369C20.8122 15.5977 20.2157 14.9006 19.4349 14.9006C18.7324 14.9006 18.1628 14.3312 18.1628 13.6287L18.1628 13.069C18.1628 12.2968 18.5482 11.5441 19.7835 11.5441C20.476 11.5441 21.0375 10.9827 21.0375 10.29L21.0375 10.2424C21.0375 9.60669 20.5776 9.06311 19.9444 9.00598C19.5967 8.97461 19.2009 8.9502 18.8115 8.9502C16.54 8.9502 15.0552 10.3021 15.0552 12.7494L15.0552 13.6382C15.0552 14.3354 14.49 14.9006 13.7928 14.9006C13.0955 14.9006 12.5303 15.4658 12.5303 16.1631L12.5303 16.4607C12.5303 17.158 13.0955 17.7233 13.7928 17.7233C14.49 17.7233 15.0552 18.2885 15.0552 18.9857L15.0552 22.9929C15.0552 23.8511 15.7509 24.5468 16.6091 24.5468C17.4672 24.5468 18.1628 23.8511 18.1628 22.9929L18.1628 18.9718C18.1628 18.2822 18.7219 17.7233 19.4114 17.7233C20.0266 17.7233 20.55 17.2753 20.645 16.6675Z" fill="#0E0E0E" fill-opacity="1.000000" fill-rule="nonzero"/>
</svg>
