<svg width="34.010742" height="34.010742" viewBox="0 0 34.0107 34.0107" fill="none" xmlns="http://www.w3.org/2000/svg" xmlns:xlink="http://www.w3.org/1999/xlink">
	<desc>
			Created with Pixso.
	</desc>
	<defs/>
	<rect id="Rectangle 2" rx="10.000000" width="34.010742" height="34.010742" fill="#FFFFFF" fill-opacity="1.000000"/>
	<path id="Vector" d="M17.0022 10.4019C19.1534 10.4019 19.4059 10.4115 20.2562 10.4498C21.0425 10.485 21.4677 10.6161 21.7522 10.7279C22.1293 10.875 22.3979 11.0476 22.6791 11.3289C22.9604 11.6102 23.1362 11.8787 23.2801 12.2559C23.3888 12.5404 23.523 12.9655 23.5582 13.7518C23.5966 14.6021 23.6061 14.8546 23.6061 17.0059C23.6061 19.1571 23.5966 19.4097 23.5582 20.2599C23.523 21.0463 23.392 21.4713 23.2801 21.7559C23.1331 22.1331 22.9604 22.4016 22.6791 22.6829C22.3979 22.9641 22.1293 23.1399 21.7522 23.2838C21.4677 23.3925 21.0425 23.5267 20.2562 23.5619C19.4059 23.6002 19.1534 23.6099 17.0022 23.6099C14.851 23.6099 14.5984 23.6002 13.7482 23.5619C12.9618 23.5267 12.5367 23.3956 12.2522 23.2838C11.875 23.1367 11.6065 22.9641 11.3252 22.6829C11.0439 22.4016 10.8681 22.1331 10.7242 21.7559C10.6156 21.4713 10.4813 21.0463 10.4462 20.2599C10.4078 19.4097 10.3982 19.1571 10.3982 17.0059C10.3982 14.8546 10.4078 14.6021 10.4462 13.7518C10.4813 12.9655 10.6124 12.5404 10.7242 12.2559C10.8713 11.8787 11.0439 11.6102 11.3252 11.3289C11.6065 11.0476 11.875 10.8718 12.2522 10.7279C12.5367 10.6193 12.9618 10.485 13.7482 10.4498C14.5984 10.4083 14.851 10.4019 17.0022 10.4019ZM17.0022 8.95068C14.8158 8.95068 14.5409 8.96033 13.681 8.99866C12.8243 9.03699 12.2394 9.17444 11.728 9.37268C11.1973 9.57715 10.7498 9.85535 10.3023 10.3029C9.8548 10.7504 9.5799 11.201 9.37213 11.7284C9.17395 12.2399 9.0365 12.8248 8.99817 13.6847C8.95978 14.5414 8.9502 14.8163 8.9502 17.0027C8.9502 19.1891 8.95978 19.464 8.99817 20.3239C9.0365 21.1805 9.17395 21.7655 9.37213 22.28C9.57672 22.8107 9.8548 23.2582 10.3023 23.7057C10.7498 24.1532 11.2005 24.4281 11.728 24.6359C12.2394 24.8341 12.8243 24.9716 13.6842 25.0099C14.5441 25.0482 14.8158 25.0579 17.0054 25.0579C19.1949 25.0579 19.4667 25.0482 20.3265 25.0099C21.1832 24.9716 21.7681 24.8341 22.2828 24.6359C22.8134 24.4313 23.2609 24.1532 23.7084 23.7057C24.1559 23.2582 24.4308 22.8075 24.6386 22.28C24.8368 21.7687 24.9742 21.1837 25.0126 20.3239C25.051 19.464 25.0605 19.1923 25.0605 17.0027C25.0605 14.8131 25.051 14.5414 25.0126 13.6815C24.9742 12.8248 24.8368 12.2399 24.6386 11.7252C24.434 11.1946 24.1559 10.7471 23.7084 10.2996C23.2609 9.85205 22.8102 9.57715 22.2828 9.36938C21.7714 9.17126 21.1864 9.03381 20.3265 8.99548C19.4635 8.96033 19.1886 8.95068 17.0022 8.95068Z" fill="#0E0E0E" fill-opacity="1.000000" fill-rule="nonzero"/>
	<rect id="Rectangle 8" x="10.259766" y="10.260254" rx="6.873749" width="13.747498" height="13.747498" fill="#0E0E0E" fill-opacity="1.000000"/>
	<path id="Vector" d="M17.002 12.8667C14.7197 12.8667 12.8657 14.7175 12.8657 17.0029C12.8657 19.2885 14.7197 21.1393 17.002 21.1393C19.2843 21.1393 21.1382 19.2853 21.1382 17.0029C21.1382 14.7207 19.2843 12.8667 17.002 12.8667ZM17.002 19.688C15.5188 19.688 14.317 18.4861 14.317 17.0029C14.317 15.5198 15.5188 14.3179 17.002 14.3179C18.4852 14.3179 19.6871 15.5198 19.6871 17.0029C19.6871 18.4861 18.4852 19.688 17.002 19.688Z" fill="#FFFFFF" fill-opacity="1.000000" fill-rule="nonzero"/>
	<path id="Vector" d="M22.2667 12.7036C22.2667 13.2368 21.8344 13.6689 21.3013 13.6689C20.7681 13.6689 20.3359 13.2368 20.3359 12.7036C20.3359 12.1705 20.7681 11.7383 21.3013 11.7383C21.8344 11.7383 22.2667 12.1705 22.2667 12.7036Z" fill="#FFFFFF" fill-opacity="1.000000" fill-rule="evenodd"/>
</svg>
