<svg width="34.010742" height="34.010742" viewBox="0 0 34.0107 34.0107" fill="none" xmlns="http://www.w3.org/2000/svg" xmlns:xlink="http://www.w3.org/1999/xlink">
	<desc>
			Created with Pixso.
	</desc>
	<defs/>
	<rect id="Rectangle 2" rx="10.000000" width="34.010742" height="34.010742" fill="#FFFFFF" fill-opacity="1.000000"/>
	<path id="Vector" d="M23.9099 9.84521L10.0975 9.84521C9.46454 9.84521 8.95032 10.3359 8.95032 10.9385L8.95032 23.9147C8.95032 24.5171 9.46454 25.0079 10.0975 25.0079L23.9099 25.0079C24.5428 25.0079 25.0607 24.5171 25.0607 23.9147L25.0607 10.9385C25.0607 10.3359 24.5428 9.84521 23.9099 9.84521ZM13.8143 22.8418L13.12 22.8418C12.1875 22.8418 11.4316 22.0859 11.4316 21.1534L11.4316 16.8014C11.4316 16.141 11.9669 15.6057 12.6273 15.6057C13.2877 15.6057 13.823 16.141 13.823 16.8014L13.823 22.8383L13.8143 22.8418ZM12.6255 14.6174C11.8596 14.6174 11.241 14.0319 11.241 13.3143C11.241 12.5968 11.8596 12.0114 12.6255 12.0114C13.3879 12.0114 14.0099 12.5968 14.0099 13.3143C14.0099 14.0353 13.3915 14.6174 12.6255 14.6174ZM22.77 21.6479C22.77 22.3073 22.2355 22.8418 21.5761 22.8418C20.9167 22.8418 20.3822 22.3073 20.3822 21.6479L20.3822 19.3219C20.3822 18.4825 20.3642 17.4028 19.1415 17.4028C17.8973 17.4028 17.7067 18.3167 17.7067 19.261L17.7067 21.6479C17.7067 22.3073 17.1722 22.8418 16.5128 22.8418C15.8535 22.8418 15.319 22.3073 15.319 21.6479L15.319 16.9285C15.319 16.1979 15.9112 15.6057 16.6418 15.6057C17.1763 15.6057 17.6096 16.0391 17.6096 16.5735C17.6096 16.5848 17.6188 16.594 17.6301 16.594L17.6479 16.5836C17.9716 16.0181 18.7495 15.4263 19.9039 15.4263C22.3205 15.4263 22.77 16.9257 22.77 18.8751L22.77 21.6479Z" fill="#0E0E0E" fill-opacity="1.000000" fill-rule="nonzero"/>
</svg>
