<svg width="34.010742" height="34.010742" viewBox="0 0 34.0107 34.0107" fill="none" xmlns="http://www.w3.org/2000/svg" xmlns:xlink="http://www.w3.org/1999/xlink">
	<desc>
			Created with Pixso.
	</desc>
	<defs/>
	<rect id="Rectangle 2" rx="10.000000" width="34.010742" height="34.010742" fill="#FFFFFF" fill-opacity="1.000000"/>
	<path id="Vector" d="M23.2887 12.9948C23.0787 13.1863 22.9535 13.4584 22.9535 13.7426C22.9535 18.3524 19.7372 23.6639 13.8589 23.6639C12.3184 23.6639 10.871 23.25 9.60199 22.515C9.42865 22.4147 9.52191 22.1417 9.72223 22.1417C10.0001 22.1417 10.274 22.1227 10.5427 22.0857C11.7616 21.9176 11.459 19.9053 10.9205 18.799C10.7975 18.5461 11.0245 18.2876 11.3056 18.2876C11.5286 18.2876 11.5474 17.9768 11.3517 17.8701C10.3022 17.2975 9.58368 16.1173 9.58368 14.7466C9.58368 14.7277 9.60437 14.7256 9.62067 14.7256C9.76093 14.8083 9.90845 14.8806 10.0619 14.9409C10.3386 15.0496 10.5038 14.6882 10.3254 14.4504C9.8736 13.8483 9.60345 13.0787 9.60345 12.2418C9.60345 11.3903 10.6354 11.265 11.265 11.8387C12.5385 12.9993 14.1097 13.7841 15.8304 14.0475C16.2341 14.1093 16.5506 13.7406 16.5506 13.3323C16.5506 11.4106 17.9756 9.84521 19.7471 9.84521C20.3743 9.84521 20.9602 10.0408 21.4546 10.3806C21.8854 10.6769 22.4058 10.8928 22.8967 10.7129C23.3356 10.5519 23.782 10.9408 23.4917 11.3073C23.3272 11.5149 23.497 11.879 23.7496 11.7991C23.9883 11.7236 24.2064 11.9884 24.0496 12.1837C23.8158 12.4746 23.5612 12.7465 23.2887 12.9948Z" fill="#0E0E0E" fill-opacity="1.000000" fill-rule="nonzero"/>
</svg>
