<svg width="27.460693" height="33.752686" viewBox="0 0 27.4607 33.7527" fill="none" xmlns="http://www.w3.org/2000/svg" xmlns:xlink="http://www.w3.org/1999/xlink">
	<desc>
			Created with Pixso.
	</desc>
	<defs/>
	<path id="Apple logo" d="M20.4292 0C20.5793 1.95947 19.9597 3.90039 18.7017 5.4104C17.4971 6.90869 15.6072 7.80225 13.6848 7.78247C13.562 5.89795 14.2109 3.99121 15.4575 2.57251C16.7324 1.12036 18.5076 0.201904 20.4292 0ZM26.5886 11.5139C24.3687 12.8787 22.9695 15.344 22.9358 17.9495C22.939 20.8933 24.7495 23.6216 27.4607 24.7683C26.9336 26.4802 26.1394 28.0979 25.1072 29.5618C23.7207 31.6355 22.2673 33.6614 19.9602 33.6987C18.863 33.7241 18.1226 33.4087 17.3508 33.0798C16.5457 32.7371 15.707 32.3796 14.3943 32.3796C11.7991 32.3796 10.9961 33.6614 8.84619 33.7505C6.64917 33.832 4.96997 31.5374 3.53345 29.4829C0.661865 25.2876 -1.57422 17.6602 1.42358 12.47C2.81812 9.96411 5.49023 8.33447 8.35645 8.24194C9.60254 8.21631 10.7983 8.69653 11.8467 9.11743C12.6482 9.43945 13.3638 9.72705 13.9497 9.72705C14.4648 9.72705 15.1602 9.45093 15.9709 9.12915C17.2478 8.62231 18.8101 8.00244 20.4021 8.16943C22.8425 8.24585 25.1882 9.51392 26.5886 11.5139Z" fill="#FFFFFF" fill-opacity="1.000000" fill-rule="evenodd"/>
</svg>
