<svg width="147.935791" height="149.000000" viewBox="0 0 147.936 149" fill="none" xmlns="http://www.w3.org/2000/svg" xmlns:xlink="http://www.w3.org/1999/xlink">
	<desc>
			Created with Pixso.
	</desc>
	<defs>
		<clipPath id="clip1_1055">
			<rect id="evernote" rx="31.928574" width="106.428574" height="106.428574" transform="translate(20.753662 21.285645)" fill="white" fill-opacity="0"/>
		</clipPath>
	</defs>
	<rect id="app" rx="31.928574" width="147.935715" height="149.000000" fill="#111218" fill-opacity="1.000000"/>
	<rect id="evernote" rx="31.928574" width="106.428574" height="106.428574" transform="translate(20.753662 21.285645)" fill="#22242F" fill-opacity="1.000000"/>
	<g clip-path="url(#clip1_1055)">
		<path id="evernote" d="M62.2786 53.9893C62.2786 54.7305 62.219 55.9658 61.5066 56.7688C60.7349 57.51 59.5476 57.5718 58.8352 57.5718C54.8276 57.5718 49.2686 56.55 45.478 58.1277C51.2629 47.5972 62.4697 40.5999 62.3972 41.2031C61.8633 45.3701 62.2786 49.7981 62.2786 53.9893ZM74.2703 101.798C74.2703 96.6711 78.3071 92.4709 83.2937 92.4709C84.7778 92.4709 85.9651 93.7063 85.9651 95.2505C85.9651 96.3005 85.4309 97.1653 84.5999 97.6594C83.6946 98.2246 82.4409 97.9609 81.6316 98.7095C81.0378 99.2036 80.563 100.007 80.563 100.871C80.563 101.798 80.9192 102.663 81.5127 103.281C82.5813 104.392 84.0061 105.01 85.5496 105.01C89.5864 105.01 92.8516 101.613 92.8516 97.4124C92.8516 93.6445 90.4175 90.3091 87.2119 88.8267C82.3467 86.2957 74.9031 87.7358 74.3296 79.8083C73.4373 84.0015 71.469 91.4827 66.1372 91.4827C50.031 92.4783 44.2258 79.2429 43.1035 65.2312C43.1035 62.2043 44.8845 60.166 47.1404 59.8572C51.1772 59.8572 55.2141 59.8572 59.2507 59.8572C61.3286 59.8572 62.5159 59.3013 63.2876 58.5601C64.2969 57.5718 64.5344 56.1511 64.5344 54.4834C64.5344 50.1389 64.5344 43.4583 64.5344 41.4502C64.5344 38.8276 66.7903 37.25 69.6992 37.25C71.4128 37.25 73.021 37.311 74.6858 37.7441C78.3071 38.6707 79.0789 42.5002 79.0789 42.5002C79.0789 42.5002 85.9058 43.7356 89.3489 44.3533C92.614 44.9709 100.688 45.5269 102.231 53.9893C105.853 74.1257 103.656 93.6445 103.478 93.6445C100.925 112.669 85.7278 111.743 85.7278 111.743C80.2034 111.743 74.2703 107.918 74.2703 101.798ZM92.0798 68.999C90.1206 68.8137 88.4585 69.6167 87.8647 71.1609C87.0237 73.3491 95.7009 75.1689 95.7009 72.1492C95.4636 70.4197 94.0388 69.2461 92.0798 68.999Z" fill="#00A82D" fill-opacity="1.000000" fill-rule="nonzero"/>
	</g>
</svg>
