<svg width="147.935791" height="149.000000" viewBox="0 0 147.936 149" fill="none" xmlns="http://www.w3.org/2000/svg" xmlns:xlink="http://www.w3.org/1999/xlink">
	<desc>
			Created with Pixso.
	</desc>
	<defs>
		<clipPath id="clip1_1081">
			<rect id="evernote" rx="31.928574" width="106.428574" height="106.428574" transform="matrix(-1 0 0 1 127.182 21.2856)" fill="white" fill-opacity="0"/>
		</clipPath>
	</defs>
	<rect id="app" rx="31.928574" width="147.935715" height="149.000000" transform="matrix(-1 0 0 1 147.936 0)" fill="#111218" fill-opacity="1.000000"/>
	<rect id="evernote" rx="31.928574" width="106.428574" height="106.428574" transform="matrix(-1 0 0 1 127.182 21.2856)" fill="#22242F" fill-opacity="1.000000"/>
	<g clip-path="url(#clip1_1081)">
		<path id="evernote" d="M85.6572 53.9893C85.6572 54.7305 85.7168 55.9658 86.4292 56.7688C87.2009 57.51 88.3882 57.5718 89.1006 57.5718C93.1082 57.5718 98.6672 56.55 102.458 58.1277C96.6729 47.5972 85.4661 40.5999 85.5386 41.2031C86.0725 45.3701 85.6572 49.7981 85.6572 53.9893ZM73.6655 101.798C73.6655 96.6711 69.6287 92.4709 64.6421 92.4709C63.158 92.4709 61.9707 93.7063 61.9707 95.2505C61.9707 96.3005 62.5049 97.1653 63.3359 97.6594C64.2412 98.2246 65.4949 97.9609 66.3042 98.7095C66.8979 99.2036 67.3728 100.007 67.3728 100.871C67.3728 101.798 67.0166 102.663 66.4231 103.281C65.3545 104.392 63.9297 105.01 62.3862 105.01C58.3494 105.01 55.0842 101.613 55.0842 97.4124C55.0842 93.6445 57.5183 90.3091 60.7239 88.8267C65.5891 86.2957 73.0327 87.7358 73.6062 79.8083C74.4985 84.0015 76.4668 91.4827 81.7986 91.4827C97.9048 92.4783 103.71 79.2429 104.832 65.2312C104.832 62.2043 103.051 60.166 100.795 59.8572C96.7585 59.8572 92.7217 59.8572 88.6851 59.8572C86.6072 59.8572 85.4199 59.3013 84.6482 58.5601C83.6389 57.5718 83.4014 56.1511 83.4014 54.4834C83.4014 50.1389 83.4014 43.4583 83.4014 41.4502C83.4014 38.8276 81.1455 37.25 78.2366 37.25C76.5229 37.25 74.9148 37.311 73.25 37.7441C69.6287 38.6707 68.8569 42.5002 68.8569 42.5002C68.8569 42.5002 62.03 43.7356 58.5869 44.3533C55.3218 44.9709 47.248 45.5269 45.7046 53.9893C42.0833 74.1257 44.2798 93.6445 44.458 93.6445C47.0107 112.669 62.208 111.743 62.208 111.743C67.7324 111.743 73.6655 107.918 73.6655 101.798ZM55.856 68.999C57.8152 68.8137 59.4773 69.6167 60.071 71.1609C60.9121 73.3491 52.2349 75.1689 52.2349 72.1492C52.4722 70.4197 53.897 69.2461 55.856 68.999Z" fill="#00A82D" fill-opacity="1.000000" fill-rule="nonzero"/>
	</g>
</svg>
