<svg width="147.935791" height="149.000000" viewBox="0 0 147.936 149" fill="none" xmlns="http://www.w3.org/2000/svg" xmlns:xlink="http://www.w3.org/1999/xlink">
	<desc>
			Created with Pixso.
	</desc>
	<defs>
		<clipPath id="clip1_1078">
			<rect id="icon" rx="31.928574" width="106.428574" height="106.428574" transform="matrix(-1 0 0 1 127.182 21.2856)" fill="white" fill-opacity="0"/>
		</clipPath>
	</defs>
	<rect id="app" rx="31.928574" width="147.935715" height="149.000000" transform="matrix(-1 0 0 1 147.936 0)" fill="#111218" fill-opacity="1.000000"/>
	<rect id="icon" rx="31.928574" width="106.428574" height="106.428574" transform="matrix(-1 0 0 1 127.182 21.2856)" fill="#22242F" fill-opacity="1.000000"/>
	<g clip-path="url(#clip1_1078)">
		<path id="zapier" d="M67.2288 81.2554C71.561 82.8857 76.4158 82.8887 80.7483 81.2563C82.3806 76.9285 82.3809 72.0745 80.7507 67.7461C76.4194 66.113 71.5598 66.1128 67.2285 67.7458C65.5967 72.073 65.5974 76.9282 67.2288 81.2554ZM42.4834 69.1787L61.1328 69.1787L47.9465 55.9995C50.0159 53.0942 52.5708 50.542 55.4778 48.4736L68.665 61.6531L68.665 43.0149C72.1846 42.4233 75.7942 42.4241 79.3137 43.0149L79.3137 61.6531L92.501 48.4736C95.4072 50.5405 97.9629 53.0962 100.033 55.9995L86.8442 69.1787L105.493 69.1787C105.954 72.8015 106.103 76.2063 105.493 79.8218L86.844 79.8218L100.032 93.001C97.9578 95.9106 95.4124 98.4543 92.501 100.528L79.3137 87.3474L79.3137 105.986C75.7937 106.576 72.1853 106.576 68.6655 105.986L68.6655 87.3474L55.4768 100.528C52.5686 98.4573 50.0183 95.9072 47.9465 93.001L61.1348 79.8218L42.4834 79.8218C41.8916 76.3074 41.8916 72.6931 42.4834 69.1787Z" fill="#FF4A00" fill-opacity="1.000000" fill-rule="nonzero"/>
	</g>
</svg>
