<svg width="147.935791" height="149.000000" viewBox="0 0 147.936 149" fill="none" xmlns="http://www.w3.org/2000/svg" xmlns:xlink="http://www.w3.org/1999/xlink">
	<desc>
			Created with Pixso.
	</desc>
	<defs>
		<clipPath id="clip1_1052">
			<rect id="icon" rx="31.928574" width="106.428574" height="106.428574" transform="translate(20.753418 21.285645)" fill="white" fill-opacity="0"/>
		</clipPath>
	</defs>
	<rect id="app" rx="31.928574" width="147.935715" height="149.000000" fill="#111218" fill-opacity="1.000000"/>
	<rect id="icon" rx="31.928574" width="106.428574" height="106.428574" transform="translate(20.753418 21.285645)" fill="#22242F" fill-opacity="1.000000"/>
	<g clip-path="url(#clip1_1052)">
		<path id="zapier" d="M80.707 81.2554C76.3748 82.8857 71.52 82.8887 67.1875 81.2563C65.5552 76.9285 65.5549 72.0745 67.1851 67.7461C71.5164 66.113 76.376 66.1128 80.7073 67.7458C82.3391 72.073 82.3384 76.9282 80.707 81.2554ZM105.452 69.1787L86.803 69.1787L99.9893 55.9995C97.9199 53.0942 95.365 50.542 92.458 48.4736L79.2708 61.6531L79.2708 43.0149C75.7512 42.4233 72.1416 42.4241 68.6221 43.0149L68.6221 61.6531L55.4348 48.4736C52.5286 50.5405 49.9729 53.0962 47.9031 55.9995L61.0916 69.1787L42.4424 69.1787C41.9819 72.8015 41.8325 76.2063 42.4424 79.8218L61.0918 79.8218L47.9033 93.001C49.978 95.9106 52.5234 98.4543 55.4348 100.528L68.6221 87.3474L68.6221 105.986C72.1421 106.576 75.7505 106.576 79.2703 105.986L79.2703 87.3474L92.459 100.528C95.3672 98.4573 97.9175 95.9072 99.9893 93.001L86.801 79.8218L105.452 79.8218C106.044 76.3074 106.044 72.6931 105.452 69.1787Z" fill="#FF4A00" fill-opacity="1.000000" fill-rule="nonzero"/>
	</g>
</svg>
