<svg width="147.935547" height="149.000000" viewBox="0 0 147.936 149" fill="none" xmlns="http://www.w3.org/2000/svg" xmlns:xlink="http://www.w3.org/1999/xlink">
	<desc>
			Created with Pixso.
	</desc>
	<defs>
		<clipPath id="clip1_1068">
			<rect id="icon" rx="31.928574" width="106.428574" height="106.428574" transform="matrix(-1 0 0 1 127.182 21.2856)" fill="white" fill-opacity="0"/>
		</clipPath>
	</defs>
	<rect id="app - hover/active" rx="31.928574" width="147.935715" height="149.000000" transform="matrix(-1 0 0 1 147.936 0)" fill="#111218" fill-opacity="1.000000"/>
	<rect id="icon" rx="31.928574" width="106.428574" height="106.428574" transform="matrix(-1 0 0 1 127.182 21.2856)" fill="#DEDFE3" fill-opacity="1.000000"/>
	<g clip-path="url(#clip1_1068)">
		<path id="vector" d="M101.722 45.2559L62.4614 42.5894C60.7505 42.4731 59.0493 42.9258 57.6436 43.8711L43.8496 53.1487C42.7148 53.9119 42.0396 55.1592 42.0396 56.4902L42.0396 99.6775C42.0396 101.829 43.7778 103.611 46.0112 103.747L89.5859 106.416C91.814 106.552 93.9678 105.618 95.3364 103.922L103.802 93.4314C105.16 91.7488 105.896 89.6794 105.896 87.5498L105.896 49.563C105.896 47.2964 104.074 45.4155 101.722 45.2559ZM99.3755 48.8667C100.061 48.9155 100.321 49.7534 99.7749 50.1555L94.3047 54.1843C93.3574 54.8821 92.1816 55.2305 90.9897 55.166L51.6187 53.0359C51.2681 53.0168 51.1353 52.5859 51.4185 52.3865L58.8779 47.1289C59.8359 46.4539 61.0132 46.1294 62.1978 46.2139L99.3755 48.8667ZM90.4819 59.4485C91.8032 59.5203 92.8364 60.5713 92.8364 61.8435L92.8364 99.0857C92.8364 100.466 91.6279 101.562 90.1948 101.48L48.832 99.1392C47.5132 99.0645 46.4834 98.0146 46.4834 96.7446L46.4834 59.3489C46.4834 58.1089 47.5679 57.1235 48.8555 57.1934L90.4819 59.4485ZM85.6631 68.0745L85.6631 68.5718L82.3105 68.7593L82.3105 93.1968L83.5986 93.3315C84.8706 93.4644 85.7925 94.5593 85.6631 95.7832L75.8701 95.3496C74.6753 95.2966 73.6875 94.4358 73.5156 93.2979L73.4609 92.9346L77.3984 92.1848L77.3984 73.8567L64.606 93.0598C63.354 94.9395 60.9185 95.7405 58.731 94.9922L56.1128 94.0964L56.1128 66.6602L54.0264 66.3093C53.4297 66.2087 52.9941 65.7104 52.9941 65.1277L52.9941 63.8867L61.6636 64.3284C62.9883 64.396 64.0269 65.4485 64.0269 66.7239L64.0269 66.9602L60.6348 67.4099L60.6348 84.3513L73.812 65.0486L83.3403 65.6814C84.6484 65.7683 85.6631 66.8137 85.6631 68.0745Z" fill="#000000" fill-opacity="1.000000" fill-rule="evenodd"/>
	</g>
</svg>
