<svg width="147.935791" height="149.000000" viewBox="0 0 147.936 149" fill="none" xmlns="http://www.w3.org/2000/svg" xmlns:xlink="http://www.w3.org/1999/xlink">
	<desc>
			Created with Pixso.
	</desc>
	<defs>
		<clipPath id="clip1_1042">
			<rect id="icon" rx="31.928574" width="106.428574" height="106.428574" transform="translate(20.753662 21.285645)" fill="white" fill-opacity="0"/>
		</clipPath>
	</defs>
	<rect id="app - hover/active" rx="31.928574" width="147.935715" height="149.000000" fill="#111218" fill-opacity="1.000000"/>
	<rect id="icon" rx="31.928574" width="106.428574" height="106.428574" transform="translate(20.753662 21.285645)" fill="#DEDFE3" fill-opacity="1.000000"/>
	<g clip-path="url(#clip1_1042)">
		<path id="vector" d="M46.2139 45.2559L85.4741 42.5894C87.1855 42.4731 88.8865 42.9258 90.2922 43.8711L104.086 53.1487C105.221 53.9119 105.896 55.1592 105.896 56.4902L105.896 99.6775C105.896 101.829 104.158 103.611 101.925 103.747L58.3501 106.416C56.1216 106.552 53.9678 105.618 52.5991 103.922L44.134 93.4314C42.7764 91.7488 42.0393 89.6794 42.0393 87.5498L42.0393 49.563C42.0393 47.2964 43.8623 45.4155 46.2139 45.2559ZM48.5605 48.8667C47.8745 48.9155 47.6147 49.7534 48.1606 50.1555L53.6309 54.1843C54.5784 54.8821 55.7544 55.2305 56.9458 55.166L96.3171 53.0359C96.6677 53.0168 96.8005 52.5859 96.5173 52.3865L89.0579 47.1289C88.0999 46.4539 86.9229 46.1294 85.7383 46.2139L48.5605 48.8667ZM57.4539 59.4485C56.1326 59.5203 55.0991 60.5713 55.0991 61.8435L55.0991 99.0857C55.0991 100.466 56.3079 101.562 57.741 101.48L99.1038 99.1392C100.423 99.0645 101.452 98.0146 101.452 96.7446L101.452 59.3489C101.452 58.1089 100.368 57.1235 99.0803 57.1934L57.4539 59.4485ZM62.2725 68.0745L62.2725 68.5718L65.6252 68.7593L65.6252 93.1968L64.3372 93.3315C63.0652 93.4644 62.1431 94.5593 62.2725 95.7832L72.0657 95.3496C73.2605 95.2966 74.248 94.4358 74.4199 93.2979L74.4749 92.9346L70.5374 92.1848L70.5374 73.8567L83.3298 93.0598C84.582 94.9395 87.0173 95.7405 89.2046 94.9922L91.823 94.0964L91.823 66.6602L93.9094 66.3093C94.5063 66.2087 94.9419 65.7104 94.9419 65.1277L94.9419 63.8867L86.2722 64.3284C84.9473 64.396 83.9092 65.4485 83.9092 66.7239L83.9092 66.9602L87.3008 67.4099L87.3008 84.3513L74.124 65.0486L64.5957 65.6814C63.2876 65.7683 62.2725 66.8137 62.2725 68.0745Z" fill="#000000" fill-opacity="1.000000" fill-rule="evenodd"/>
	</g>
</svg>
