<svg width="147.935791" height="149.000000" viewBox="0 0 147.936 149" fill="none" xmlns="http://www.w3.org/2000/svg" xmlns:xlink="http://www.w3.org/1999/xlink">
	<desc>
			Created with Pixso.
	</desc>
	<defs>
		<clipPath id="clip1_1045">
			<rect id="icon" rx="31.928574" width="106.428574" height="106.428574" transform="translate(20.753662 21.285645)" fill="white" fill-opacity="0"/>
		</clipPath>
	</defs>
	<rect id="app" rx="31.928574" width="147.935715" height="149.000000" fill="#111218" fill-opacity="1.000000"/>
	<rect id="icon" rx="31.928574" width="106.428574" height="106.428574" transform="translate(20.753662 21.285645)" fill="#22242F" fill-opacity="1.000000"/>
	<g clip-path="url(#clip1_1045)">
		<path id="vector" d="M101.906 71.8391C105.579 71.8391 108.557 68.8611 108.557 65.1877C108.557 61.5144 105.579 58.5366 101.906 58.5366L101.905 58.5366C98.2312 58.5366 95.2532 61.5146 95.2532 65.1885L95.2532 71.8391L101.906 71.8391ZM89.9316 65.1873L89.9316 46.5635C89.9316 42.8896 86.9536 39.9116 83.28 39.9116C79.6062 39.9116 76.6282 42.8896 76.6282 46.5635L76.6282 65.1873C76.6282 68.8608 79.6062 71.8391 83.28 71.8391C86.9536 71.8391 89.9316 68.8608 89.9316 65.1873Z" fill="#2EB67D" fill-opacity="1.000000" fill-rule="nonzero"/>
		<path id="vector" d="M46.03 77.1614C42.3567 77.1614 39.3789 80.1394 39.3789 83.8127C39.3789 87.4861 42.3567 90.4639 46.03 90.4639L46.0305 90.4639C49.7043 90.4639 52.6824 87.4858 52.6824 83.812L52.6824 77.1614L46.03 77.1614ZM58.0039 83.8132L58.0039 102.437C58.0039 106.111 60.9819 109.089 64.6555 109.089C68.3293 109.089 71.3074 106.111 71.3074 102.437L71.3074 83.8132C71.3074 80.1396 68.3293 77.1614 64.6555 77.1614C60.9819 77.1614 58.0039 80.1396 58.0039 83.8132Z" fill="#E01E5A" fill-opacity="1.000000" fill-rule="nonzero"/>
		<path id="vector" d="M76.6296 102.438C76.6296 106.112 79.6077 109.089 83.281 109.089C86.9543 109.089 89.9321 106.112 89.9321 102.438L89.9321 102.438C89.9321 98.7639 86.9541 95.7859 83.2803 95.7859L76.6296 95.7859L76.6296 102.438ZM83.2815 90.4644L101.905 90.4644C105.579 90.4644 108.557 87.4863 108.557 83.8127C108.557 80.1389 105.579 77.1609 101.905 77.1609L83.2815 77.1609C79.6079 77.1609 76.6296 80.1389 76.6296 83.8127C76.6296 87.4863 79.6079 90.4644 83.2815 90.4644Z" fill="#ECB22E" fill-opacity="1.000000" fill-rule="nonzero"/>
		<path id="vector" d="M71.3059 46.562C71.3059 42.8887 68.3279 39.9109 64.6545 39.9109C60.9812 39.9109 58.0034 42.8887 58.0034 46.562L58.0034 46.5625C58.0034 50.2363 60.9814 53.2144 64.6553 53.2144L71.3059 53.2144L71.3059 46.562ZM64.6541 58.5359L46.0303 58.5359C42.3564 58.5359 39.3784 61.5139 39.3784 65.1875C39.3784 68.8613 42.3564 71.8394 46.0303 71.8394L64.6541 71.8394C68.3276 71.8394 71.3059 68.8613 71.3059 65.1875C71.3059 61.5139 68.3276 58.5359 64.6541 58.5359Z" fill="#36C5F0" fill-opacity="1.000000" fill-rule="nonzero"/>
	</g>
</svg>
