<svg width="147.935791" height="149.000000" viewBox="0 0 147.936 149" fill="none" xmlns="http://www.w3.org/2000/svg" xmlns:xlink="http://www.w3.org/1999/xlink">
	<desc>
			Created with Pixso.
	</desc>
	<defs>
		<clipPath id="clip1_1071">
			<rect id="icon" rx="31.928574" width="106.428574" height="106.428574" transform="matrix(-1 0 0 1 127.182 21.2856)" fill="white" fill-opacity="0"/>
		</clipPath>
	</defs>
	<rect id="app" rx="31.928574" width="147.935715" height="149.000000" transform="matrix(-1 0 0 1 147.936 0)" fill="#111218" fill-opacity="1.000000"/>
	<rect id="icon" rx="31.928574" width="106.428574" height="106.428574" transform="matrix(-1 0 0 1 127.182 21.2856)" fill="#22242F" fill-opacity="1.000000"/>
	<g clip-path="url(#clip1_1071)">
		<path id="vector" d="M46.0305 71.8391C42.3572 71.8391 39.3794 68.8611 39.3794 65.1877C39.3794 61.5144 42.3572 58.5366 46.0305 58.5366L46.031 58.5366C49.7048 58.5366 52.6829 61.5146 52.6829 65.1885L52.6829 71.8391L46.0305 71.8391ZM58.0044 65.1873L58.0044 46.5635C58.0044 42.8896 60.9824 39.9116 64.656 39.9116C68.3298 39.9116 71.3079 42.8896 71.3079 46.5635L71.3079 65.1873C71.3079 68.8608 68.3298 71.8391 64.656 71.8391C60.9824 71.8391 58.0044 68.8608 58.0044 65.1873Z" fill="#2EB67D" fill-opacity="1.000000" fill-rule="nonzero"/>
		<path id="vector" d="M101.906 77.1614C105.579 77.1614 108.557 80.1394 108.557 83.8127C108.557 87.4861 105.579 90.4639 101.906 90.4639L101.906 90.4639C98.2317 90.4639 95.2537 87.4858 95.2537 83.812L95.2537 77.1614L101.906 77.1614ZM89.9324 83.8132L89.9324 102.437C89.9324 106.111 86.9541 109.089 83.2805 109.089C79.6067 109.089 76.6287 106.111 76.6287 102.437L76.6287 83.8132C76.6287 80.1396 79.6067 77.1614 83.2805 77.1614C86.9541 77.1614 89.9324 80.1396 89.9324 83.8132Z" fill="#E01E5A" fill-opacity="1.000000" fill-rule="nonzero"/>
		<path id="vector" d="M71.3064 102.438C71.3064 106.112 68.3284 109.089 64.655 109.089C60.9817 109.089 58.0039 106.112 58.0039 102.438L58.0039 102.438C58.0039 98.7639 60.9819 95.7859 64.6558 95.7859L71.3064 95.7859L71.3064 102.438ZM64.6545 90.4644L46.0308 90.4644C42.3569 90.4644 39.3789 87.4863 39.3789 83.8127C39.3789 80.1389 42.3569 77.1609 46.0308 77.1609L64.6545 77.1609C68.3281 77.1609 71.3064 80.1389 71.3064 83.8127C71.3064 87.4863 68.3281 90.4644 64.6545 90.4644Z" fill="#ECB22E" fill-opacity="1.000000" fill-rule="nonzero"/>
		<path id="vector" d="M76.6299 46.562C76.6299 42.8887 79.6079 39.9109 83.2812 39.9109C86.9546 39.9109 89.9324 42.8887 89.9324 46.562L89.9324 46.5625C89.9324 50.2363 86.9543 53.2144 83.2805 53.2144L76.6299 53.2144L76.6299 46.562ZM83.2817 58.5359L101.906 58.5359C105.579 58.5359 108.557 61.5139 108.557 65.1875C108.557 68.8613 105.579 71.8394 101.906 71.8394L83.2817 71.8394C79.6082 71.8394 76.6299 68.8613 76.6299 65.1875C76.6299 61.5139 79.6082 58.5359 83.2817 58.5359Z" fill="#36C5F0" fill-opacity="1.000000" fill-rule="nonzero"/>
	</g>
</svg>
