<svg width="250.000000" height="100.000000" viewBox="0 0 250 100" fill="none" xmlns="http://www.w3.org/2000/svg" xmlns:xlink="http://www.w3.org/1999/xlink">
	<desc>
			Created with Pixso.
	</desc>
	<defs>
		<clipPath id="clip1_1131">
			<rect id="a16z_3853ceb4aa.svg" width="250.000000" height="100.000000" fill="white" fill-opacity="0"/>
		</clipPath>
	</defs>
	<g clip-path="url(#clip1_1131)">
		<path id="Vector" d="M134.375 70.8533C133.595 70.7502 132.812 70.6719 132.037 70.5442C125.421 69.4561 120.219 64.0332 119.413 57.4236C118.891 53.1379 120.132 49.3406 122.651 45.9304C126.757 40.3708 130.911 34.8447 135.055 29.3142C135.167 29.1643 135.396 29.0144 135.57 29.0122C138.062 28.9941 140.554 29.001 143.046 29.0032C143.076 29.0032 143.102 29.0254 143.187 29.0637C140.321 32.7646 137.464 36.4524 134.565 40.1963C134.737 40.2297 134.843 40.27 134.946 40.2656C138.931 40.0886 142.399 41.3984 145.339 44.0293C148.962 47.2715 150.717 51.3779 150.5 56.23C150.2 62.8867 145.534 68.5403 139.041 70.2263C137.991 70.4995 136.891 70.5869 135.814 70.7639C135.669 70.7883 135.528 70.8264 135.384 70.8579C135.049 70.8533 134.71 70.8533 134.375 70.8533ZM134.816 64.7698C135.416 64.6982 136.025 64.678 136.611 64.5503C140.516 63.6995 143.21 60.7283 143.705 56.7473C144.39 51.2368 140.431 45.9885 134.377 46.3132C132.111 46.4341 130.149 47.2759 128.605 48.9397C126.33 51.3892 125.703 54.3201 126.289 57.5466C127.051 61.738 130.606 64.7183 134.816 64.7698Z" fill="#FFFFFF" fill-opacity="1.000000" fill-rule="nonzero"/>
		<path id="Vector" d="M98.3749 41.8149C98.3749 41.0896 98.3749 40.4761 98.3749 39.8245C100.589 39.8245 102.748 39.8245 104.942 39.8245C104.942 49.8845 104.942 59.9312 104.942 70.0071C102.766 70.0071 100.618 70.0071 98.3996 70.0071C98.3996 69.2883 98.3996 68.5762 98.3996 67.741C93.7132 70.8511 88.7918 71.6257 83.5681 69.7942C80.2946 68.6455 77.6928 66.5588 75.7403 63.6929C71.9048 58.0615 72.113 50.4758 76.2553 45.1155C78.8929 41.7031 82.3523 39.6296 86.6266 38.9849C90.8763 38.3423 94.7611 39.3521 98.3749 41.8149ZM88.9575 64.1362C94.1364 64.1472 98.3637 59.9736 98.3884 54.8262C98.413 49.6606 94.1767 45.4109 89.0045 45.4065C83.8681 45.4043 79.6228 49.6113 79.6139 54.7141C79.6049 59.9536 83.7382 64.1228 88.9575 64.1362Z" fill="#FFFFFF" fill-opacity="1.000000" fill-rule="nonzero"/>
		<path id="Vector" d="M161.122 63.9663C166.138 63.9663 171.028 63.9663 175.969 63.9663C175.969 66.0039 175.969 67.9897 175.969 70.0005C168.328 70.0005 160.706 70.0005 153.039 70.0005C153.03 69.8281 153.012 69.6646 153.012 69.5012C153.01 67.8018 153.001 66.1045 153.024 64.405C153.026 64.1611 153.127 63.8723 153.281 63.6841C157.994 57.9768 162.719 52.2805 167.441 46.5798C167.564 46.4321 167.678 46.2754 167.869 46.0291C162.86 46.0291 157.97 46.0291 153.046 46.0291C153.046 43.9983 153.046 42.0234 153.046 40.0217C160.692 40.0217 168.312 40.0217 175.965 40.0217C175.976 40.1829 175.996 40.3286 175.996 40.4741C175.999 42.1892 176.008 43.9043 175.985 45.6194C175.983 45.8613 175.884 46.1501 175.73 46.3359C170.999 52.0498 166.254 57.7529 161.512 63.458C161.4 63.5945 161.299 63.7356 161.122 63.9663Z" fill="#FFFFFF" fill-opacity="1.000000" fill-rule="nonzero"/>
		<path id="Vector" d="M116.162 70.0002C113.95 70.0002 111.769 70.0002 109.525 70.0002C109.525 69.7517 109.525 69.5212 109.525 69.2905C109.525 58.1086 109.525 46.9268 109.525 35.7449C109.525 35.0217 109.525 35.0217 108.787 35.0217C107.609 35.0217 106.433 35.0217 105.209 35.0217C105.209 33.0178 105.209 31.0452 105.209 29.0344C108.843 29.0344 112.485 29.0344 116.162 29.0344C116.162 42.6904 116.162 56.3308 116.162 70.0002Z" fill="#FFFFFF" fill-opacity="1.000000" fill-rule="nonzero"/>
	</g>
</svg>
