<svg width="34.010742" height="34.010742" viewBox="0 0 34.0107 34.0107" fill="none" xmlns="http://www.w3.org/2000/svg" xmlns:xlink="http://www.w3.org/1999/xlink">
	<desc>
			Created with Pixso.
	</desc>
	<defs/>
	<rect id="Rectangle 2" rx="17.005371" width="34.010742" height="34.010742" fill="#FFFFFF" fill-opacity="1.000000"/>
	<path id="Vector" d="M17.0012 10.4023C19.1525 10.4023 19.405 10.4121 20.2552 10.4502C21.0416 10.4854 21.4667 10.6167 21.7512 10.7285C22.1284 10.8755 22.3969 11.0479 22.6782 11.3296C22.9595 11.6108 23.1353 11.8794 23.2791 12.2563C23.3878 12.541 23.522 12.9658 23.5572 13.7524C23.5956 14.6025 23.6052 14.855 23.6052 17.0063C23.6052 19.1577 23.5956 19.4102 23.5572 20.2603C23.522 21.0469 23.391 21.4717 23.2791 21.7563C23.1321 22.1333 22.9595 22.4019 22.6782 22.6831C22.3969 22.9648 22.1284 23.1406 21.7512 23.2842C21.4667 23.3931 21.0416 23.5273 20.2552 23.5625C19.405 23.6006 19.1525 23.6104 17.0012 23.6104C14.85 23.6104 14.5974 23.6006 13.7472 23.5625C12.9608 23.5273 12.5357 23.396 12.2512 23.2842C11.874 23.1372 11.6055 22.9648 11.3242 22.6831C11.0429 22.4019 10.8671 22.1333 10.7233 21.7563C10.6146 21.4717 10.4803 21.0469 10.4452 20.2603C10.4068 19.4102 10.3972 19.1577 10.3972 17.0063C10.3972 14.855 10.4068 14.6025 10.4452 13.7524C10.4803 12.9658 10.6114 12.541 10.7233 12.2563C10.8703 11.8794 11.0429 11.6108 11.3242 11.3296C11.6055 11.0479 11.874 10.8721 12.2512 10.7285C12.5357 10.6196 12.9608 10.4854 13.7472 10.4502C14.5974 10.4087 14.85 10.4023 17.0012 10.4023ZM17.0012 8.95117C14.8148 8.95117 14.5399 8.96094 13.6801 8.99902C12.8234 9.0376 12.2384 9.1748 11.727 9.37305C11.1964 9.57764 10.7488 9.85596 10.3013 10.3032C9.85382 10.751 9.57892 11.2017 9.37115 11.729C9.17297 12.2402 9.03552 12.8252 8.99719 13.6851C8.9588 14.542 8.94922 14.8169 8.94922 17.0029C8.94922 19.1895 8.9588 19.4644 8.99719 20.3242C9.03552 21.1812 9.17297 21.7661 9.37115 22.2808C9.57574 22.811 9.85382 23.2588 10.3013 23.7061C10.7488 24.1538 11.1995 24.4287 11.727 24.6362C12.2384 24.8345 12.8234 24.9722 13.6832 25.0103C14.5431 25.0488 14.8148 25.0581 17.0044 25.0581C19.194 25.0581 19.4657 25.0488 20.3256 25.0103C21.1822 24.9722 21.7672 24.8345 22.2818 24.6362C22.8124 24.4316 23.2599 24.1538 23.7075 23.7061C24.155 23.2588 24.4299 22.8081 24.6376 22.2808C24.8358 21.769 24.9733 21.1841 25.0116 20.3242C25.05 19.4644 25.0596 19.1929 25.0596 17.0029C25.0596 14.8135 25.05 14.542 25.0116 13.6821C24.9733 12.8252 24.8358 12.2402 24.6376 11.7256C24.433 11.1953 24.155 10.7476 23.7075 10.3003C23.2599 9.85254 22.8093 9.57764 22.2818 9.37012C21.7704 9.17188 21.1854 9.03418 20.3256 8.99609C19.4625 8.96094 19.1876 8.95117 17.0012 8.95117Z" fill="#0E0E0E" fill-opacity="1.000000" fill-rule="nonzero"/>
	<rect id="Rectangle 8" x="10.257812" y="10.260742" rx="3.000000" width="13.747498" height="13.747498" fill="#0E0E0E" fill-opacity="1.000000"/>
	<path id="Vector" d="M16.9996 12.8672C14.7172 12.8672 12.8633 14.7178 12.8633 17.0034C12.8633 19.2891 14.7172 21.1396 16.9996 21.1396C19.2819 21.1396 21.1358 19.2856 21.1358 17.0034C21.1358 14.7212 19.2819 12.8672 16.9996 12.8672ZM16.9996 19.6885C15.5164 19.6885 14.3145 18.4868 14.3145 17.0034C14.3145 15.5205 15.5164 14.3184 16.9996 14.3184C18.4827 14.3184 19.6846 15.5205 19.6846 17.0034C19.6846 18.4868 18.4827 19.6885 16.9996 19.6885Z" fill="#FFFFFF" fill-opacity="1.000000" fill-rule="nonzero"/>
	<path id="Vector" d="M22.2667 12.7036C22.2667 13.2368 21.8344 13.6689 21.3013 13.6689C20.7681 13.6689 20.3359 13.2368 20.3359 12.7036C20.3359 12.1704 20.7681 11.7383 21.3013 11.7383C21.8344 11.7383 22.2667 12.1704 22.2667 12.7036Z" fill="#FFFFFF" fill-opacity="1.000000" fill-rule="evenodd"/>
</svg>
