<svg width="34.010742" height="34.010742" viewBox="0 0 34.0107 34.0107" fill="none" xmlns="http://www.w3.org/2000/svg" xmlns:xlink="http://www.w3.org/1999/xlink">
	<desc>
			Created with Pixso.
	</desc>
	<defs/>
	<rect id="Rectangle 2" rx="17.005371" width="34.010742" height="34.010742" fill="#FFFFFF" fill-opacity="1.000000"/>
	<path id="Vector" d="M23.9088 9.8457L10.0964 9.8457C9.46344 9.8457 8.94922 10.3364 8.94922 10.939L8.94922 23.915C8.94922 24.5176 9.46344 25.0083 10.0964 25.0083L23.9088 25.0083C24.5417 25.0083 25.0596 24.5176 25.0596 23.915L25.0596 10.939C25.0596 10.3364 24.5417 9.8457 23.9088 9.8457ZM13.8183 22.8423L11.4305 22.8423L11.4305 15.606L13.8219 15.606L13.8219 22.8423L13.8183 22.8423ZM12.6244 14.6177C11.8585 14.6177 11.2399 14.0322 11.2399 13.3149C11.2399 12.5972 11.8585 12.0117 12.6244 12.0117C13.3868 12.0117 14.0089 12.5972 14.0089 13.3149C14.0089 14.0356 13.3904 14.6177 12.6244 14.6177ZM22.7689 22.8423L20.3811 22.8423L20.3811 19.3223C20.3811 18.4829 20.3631 17.4033 19.1404 17.4033C17.8962 17.4033 17.7056 18.3174 17.7056 19.2612L17.7056 22.8423L15.3179 22.8423L15.3179 15.606L17.6085 15.606L17.6085 16.5942L17.6409 16.5942C17.9609 16.0259 18.7413 15.4268 19.9028 15.4268C22.3194 15.4268 22.7689 16.9263 22.7689 18.8755L22.7689 22.8423Z" fill="#0E0E0E" fill-opacity="1.000000" fill-rule="nonzero"/>
</svg>
