<svg width="101.375610" height="102.000000" viewBox="0 0 101.376 102" fill="none" xmlns="http://www.w3.org/2000/svg" xmlns:xlink="http://www.w3.org/1999/xlink">
	<desc>
			Created with Pixso.
	</desc>
	<defs/>
	<path id="Vector" d="M40.6594 40.4248C31.5146 40.4248 24.0742 47.8665 24.0742 57.0149C24.0742 58.0345 24.9005 58.8621 25.9214 58.8621L55.3938 58.8621C56.4135 58.8621 57.241 58.0345 57.241 57.0149C57.241 47.8677 49.803 40.4248 40.6594 40.4248ZM27.9004 55.1677C28.7981 48.9292 34.1783 44.1191 40.6594 44.1191C47.1393 44.1191 52.5159 48.9292 53.4148 55.1677L27.9004 55.1677Z" fill="#00A3FF" fill-opacity="1.000000" fill-rule="nonzero"/>
	<path id="Vector" d="M40.395 39.01C45.944 39.01 50.4585 34.4967 50.4585 28.9503C50.4585 23.4087 45.944 18.9004 40.395 18.9004C34.8547 18.9004 30.3477 23.4087 30.3477 28.9503C30.3477 34.4967 34.8547 39.01 40.395 39.01ZM40.395 22.5947C43.9072 22.5947 46.7642 25.4456 46.7642 28.9503C46.7642 32.46 43.9072 35.3157 40.395 35.3157C36.8916 35.3157 34.042 32.46 34.042 28.9503C34.042 25.4456 36.8916 22.5947 40.395 22.5947Z" fill="#00A3FF" fill-opacity="1.000000" fill-rule="nonzero"/>
	<path id="Vector" d="M100.834 90.4219L81.5677 71.1681C81.2217 70.8221 80.7512 70.6276 80.2611 70.6276C80.2611 70.6276 80.2612 70.6276 80.2599 70.6276C79.771 70.6276 79.3007 70.8221 78.9534 71.1681L75.7922 74.3318L70.1053 68.6461C77.0433 61.3497 81.3141 51.4969 81.3141 40.6576C81.3141 18.239 63.0751 0 40.6564 0C18.239 -0.0012207 0 18.2378 0 40.6564C0 63.0763 18.239 81.3141 40.6576 81.3141C50.9108 81.3141 60.2833 77.4904 67.443 71.2063L73.1827 76.9448L70.5352 79.5938C69.8147 80.3153 69.8147 81.4852 70.5364 82.2056L89.8013 101.459C90.1472 101.805 90.6177 102 91.1078 102C91.5979 102 92.0671 101.805 92.4144 101.459L100.835 93.0338C101.181 92.6877 101.376 92.2173 101.376 91.7272C101.374 91.2371 101.18 90.7679 100.834 90.4219ZM3.69434 40.6564C3.69434 20.2747 20.2759 3.69312 40.6576 3.69312C61.0394 3.69312 77.621 20.2747 77.621 40.6564C77.621 61.0382 61.0394 77.6198 40.6576 77.6198C20.2759 77.6198 3.69434 61.0382 3.69434 40.6564ZM91.1053 97.5409L74.4548 80.8978L80.2637 75.0853L96.9153 91.7285L91.1053 97.5409Z" fill="#00A3FF" fill-opacity="1.000000" fill-rule="nonzero"/>
</svg>
