<svg width="19.500061" height="16.500244" viewBox="0 0 19.5001 16.5002" fill="none" xmlns="http://www.w3.org/2000/svg" xmlns:xlink="http://www.w3.org/1999/xlink">
	<desc>
			Created with Pixso.
	</desc>
	<defs/>
	<path id="Vector" d="M6.48633 16.2502C6.24017 16.2502 6.07605 16.1702 5.91193 16.0098L0.496155 10.397C0.167969 10.0762 0.167969 9.59521 0.496155 9.27441C0.824402 8.95361 1.31671 8.95361 1.64496 9.27441L1.64496 9.27441C4.19092 11.8909 8.44098 11.7314 10.7838 8.93164L17.8102 0.534668C18.0564 0.213867 18.6307 0.133789 18.959 0.454346C19.2872 0.775146 19.3693 1.25635 19.0411 1.5769L7.14276 16.0098C6.9787 16.1702 6.73248 16.2502 6.48633 16.2502Z" fill="#00A3FF" fill-opacity="1.000000" fill-rule="nonzero"/>
	<path id="Vector" d="M5.91193 16.0098L0.496155 10.397C0.167969 10.0762 0.167969 9.59521 0.496155 9.27441C0.824402 8.95361 1.31671 8.95361 1.64496 9.27441C4.19092 11.8909 8.44098 11.7314 10.7838 8.93164L17.8102 0.534668C18.0564 0.213867 18.6307 0.133789 18.959 0.454346C19.2872 0.775146 19.3693 1.25635 19.0411 1.5769L7.14276 16.0098C6.9787 16.1702 6.73248 16.2502 6.48633 16.2502C6.24017 16.2502 6.07605 16.1702 5.91193 16.0098Z" stroke="#00A3FF" stroke-opacity="1.000000" stroke-width="0.500000"/>
</svg>
