<svg width="82.693604" height="101.407349" viewBox="0 0 82.6936 101.407" fill="none" xmlns="http://www.w3.org/2000/svg" xmlns:xlink="http://www.w3.org/1999/xlink">
	<desc>
			Created with Pixso.
	</desc>
	<defs/>
	<path id="Vector" d="M81.5552 23.8428C83.1658 15.7537 83.8676 5.30005 78.0649 1.43652C72.2634 -2.43079 62.8884 2.23865 56.0417 6.83875C48.7548 11.7363 41.0786 18.8733 37.7878 23.8081L35.3539 27.4608C31.4619 27.3555 19.1236 27.1793 14.5893 29.0305C9.5838 31.0776 0.461792 41.8859 0.0216675 46.29C-0.146973 47.9824 0.708557 48.8219 1.23553 49.1727C2.20386 49.8163 4.82501 50.0593 8.23474 50.0593C11.8528 50.0593 16.3574 49.7841 20.7206 49.4232L19.8986 50.6582C19.8973 50.6594 19.8961 50.6606 19.8948 50.6619C19.8936 50.6631 19.8936 50.6656 19.8923 50.6669L12.965 61.0621C8.3017 68.0713 8.28436 77.202 12.7939 84.1963L9.90863 88.526C8.69598 90.3438 8.29553 92.5421 8.78278 94.7156C9.26141 96.8582 10.5497 98.7205 12.4108 99.9592C13.8838 100.939 15.544 101.407 17.1744 101.407C19.8242 101.407 22.3907 100.167 23.9294 97.8625L26.8048 93.5476C28.0372 93.7683 29.2734 93.8787 30.5034 93.8774C37.4531 93.8774 44.1349 90.4243 48.1038 84.4728L56.4075 72.0081C59.0225 80.101 62.147 88.5682 64.1445 89.8999C64.4557 90.1069 64.969 90.3549 65.6485 90.3549C66.1159 90.3549 66.6615 90.2371 67.274 89.906C71.171 87.8007 77.6272 75.2169 77.5838 69.8134C77.5528 64.9196 72.6329 53.5967 71.0359 50.0481L72.918 47.2224C76.2075 42.29 79.8404 32.4576 81.5552 23.8428ZM58.1173 9.92615C66.2176 4.48169 72.9069 2.46558 76.0029 4.53125C79.1027 6.5957 79.8144 13.5428 77.9074 23.115C76.0587 32.4006 72.4407 41.2312 69.822 45.1567L52.968 70.4569L33.0676 57.1998C33.0551 57.1912 33.0464 57.1801 33.0341 57.1726C33.0217 57.1639 33.0081 57.1602 32.9956 57.1515L24.0212 51.174L37.8325 30.4453L40.8814 25.8688C43.5026 21.9432 50.2625 15.2043 58.1173 9.92615ZM3.79962 46.1995C4.63782 43.2411 11.8615 34.1663 15.9966 32.4738C18.9711 31.2599 27.426 31.0789 32.9051 31.1371L23.3628 45.458C15.3865 46.1821 6.33893 46.6062 3.79962 46.1995ZM16.061 63.1241L21.9592 54.2725L29.421 59.2433L15.0852 80.7556C12.226 75.2206 12.5298 68.4321 16.061 63.1241ZM20.8347 95.7969C19.4844 97.8191 16.6277 98.2965 14.4702 96.8607C13.4114 96.1564 12.6823 95.105 12.412 93.9022C12.1504 92.7306 12.3599 91.5526 13.0047 90.588L16.6128 85.1733C16.6227 85.1572 16.6351 85.1423 16.645 85.1262L32.5182 61.304L40.3445 66.5177L20.8347 95.7969ZM45.009 82.4083C41.4728 87.7139 35.3192 90.6078 29.1011 90.0995L43.4393 68.5809L50.906 73.5554L45.009 82.4083ZM73.8629 69.8395C73.8976 74.2957 68.344 84.4083 65.9225 86.3673C64.4792 84.0215 61.4254 75.6001 59.0497 68.0404L68.5858 53.7245C70.752 58.7572 73.843 66.6306 73.8629 69.8395Z" fill="#00A3FF" fill-opacity="1.000000" fill-rule="nonzero"/>
	<path id="Vector" d="M49.2626 43.5656C51.4534 45.0249 53.932 45.7241 56.3845 45.7241C60.5506 45.7241 64.6448 43.7094 67.1246 39.9896L67.1259 39.9884C71.0613 34.0741 69.4543 26.063 63.5425 22.1288C60.6796 20.2218 57.2451 19.5424 53.8713 20.2169C50.4975 20.8914 47.5899 22.8392 45.6842 25.7009C43.7735 28.5664 43.094 32.0034 43.771 35.3796C44.4505 38.7534 46.4008 41.661 49.2626 43.5656ZM48.7827 27.7629C50.1367 25.7283 52.2048 24.3433 54.6028 23.8634C55.2067 23.7419 55.8154 23.6824 56.418 23.6824C58.2072 23.6824 59.9579 24.2081 61.483 25.2236C65.6863 28.0209 66.8295 33.7195 64.0298 37.9252C61.2288 42.1284 55.5278 43.2704 51.3257 40.4683C49.2886 39.1143 47.9011 37.0461 47.4213 34.6469C46.939 32.2477 47.4225 29.8026 48.7827 27.7629Z" fill="#00A3FF" fill-opacity="1.000000" fill-rule="nonzero"/>
</svg>
