<svg width="250.000000" height="100.000000" viewBox="0 0 250 100" fill="none" xmlns="http://www.w3.org/2000/svg" xmlns:xlink="http://www.w3.org/1999/xlink">
	<desc>
			Created with Pixso.
	</desc>
	<defs>
		<clipPath id="clip1_1118">
			<rect id="sequioia_70b028d972.svg" width="250.000000" height="100.000000" fill="white" fill-opacity="0"/>
		</clipPath>
	</defs>
	<g clip-path="url(#clip1_1118)">
		<path id="Vector" d="M86.8103 37C83.9954 37 81.8199 38.0247 80.1567 39.688C77.7257 42.1191 77.7234 45.189 77.7234 49.5393C77.7234 53.7615 77.5977 56.8352 80.1567 59.394C81.948 61.1853 83.9954 62.0784 86.8103 62.0784C87.578 62.0784 88.2161 61.9517 88.8558 61.8235L97.1709 61.8235L94.7415 57.5996C95.8929 55.4243 95.8934 52.8657 95.8934 49.5393C95.8934 45.3169 95.8911 42.2471 93.4601 39.688C91.7968 37.8967 89.6251 37 86.8103 37ZM137.222 37C134.407 37 132.231 37.8967 130.568 39.688C128.009 42.2471 128.135 45.3169 128.135 49.5393C128.135 53.8894 128.137 56.9631 130.568 59.394C132.231 61.0574 134.407 62.0784 137.222 62.0784C140.037 62.0784 142.208 61.1853 143.872 59.394C146.303 56.8352 146.305 53.7615 146.305 49.5393C146.305 45.189 146.302 42.1191 143.872 39.688C142.08 38.0247 140.037 37 137.222 37ZM39.467 37.1294C34.0933 37.1294 30.8973 40.2007 30.8973 44.5508C30.8973 46.5979 31.5365 48.2622 32.6881 49.4138C33.7115 50.4373 35.3744 51.2034 37.4216 51.4592L40.3644 51.8433C41.5159 52.0991 42.0273 52.2288 42.5392 52.7405C43.051 53.2522 43.3073 53.8904 43.3073 54.7859C43.3073 56.8333 41.7725 57.8582 38.9576 57.8582C36.7825 57.8582 34.6074 57.344 33.0721 55.8088L30 58.8809C32.431 61.3118 35.2472 62.0784 38.9576 62.0784C44.0754 62.0784 48.17 59.3909 48.17 54.6567C48.17 52.4817 47.5295 50.6931 46.25 49.4138C45.2264 48.3901 43.8195 47.7495 41.5164 47.4937L38.5736 47.1096C37.55 46.8538 36.7814 46.5986 36.2697 46.0869C35.7578 45.5752 35.5016 44.9358 35.5016 44.2961C35.5016 42.6328 36.7827 41.2241 39.3416 41.2241C40.877 41.2241 42.7946 41.3501 44.33 42.8855L47.402 39.9429C45.3549 37.8955 42.7937 37.1294 39.467 37.1294ZM55.0782 37.2585L55.0782 61.8235L71.3282 61.8235L71.3282 57.5996L59.9412 57.5996L59.9412 51.5884L69.663 51.5884L69.663 47.239L59.9412 47.239L59.9412 41.4788L71.3282 41.4788L71.3282 37.2585L55.0782 37.2585ZM103.056 37.2585L103.056 53.3792C103.056 58.625 107.153 62.0784 112.143 62.0784C117.133 62.0784 121.097 58.625 121.097 53.3792L121.097 37.2585L116.364 37.2585L116.364 53.25C116.364 56.0647 114.702 57.7288 112.143 57.7288C109.584 57.7288 107.919 56.0647 107.919 53.25L107.919 37.2585L103.056 37.2585ZM153.342 37.2585L153.342 61.8235L158.076 61.8235L158.076 37.2585L153.342 37.2585ZM173.045 37.2585L164.087 61.8235L169.079 61.8235L170.615 57.4741L179.314 57.4741L180.721 61.8235L185.713 61.8235L176.755 37.2585L173.045 37.2585ZM86.681 41.3535C87.9604 41.3535 89.1133 41.8633 89.7531 42.6309C90.6487 43.6543 90.9012 44.8052 90.9012 49.5393C90.9012 54.2732 90.6487 55.4277 89.7531 56.4514C89.1133 57.219 87.9604 57.7288 86.681 57.7288C85.4015 57.7288 84.2487 57.219 83.609 56.4514C82.7133 55.4277 82.4569 54.2732 82.4569 49.5393C82.4569 44.8052 82.7133 43.6543 83.609 42.6309C84.2487 41.8633 85.4015 41.3535 86.681 41.3535ZM137.222 41.3535C138.501 41.3535 139.65 41.8633 140.29 42.6309C141.186 43.6543 141.442 44.8052 141.442 49.5393C141.442 54.2732 141.186 55.4277 140.29 56.4514C139.65 57.219 138.501 57.7288 137.222 57.7288C135.942 57.7288 134.789 57.219 134.15 56.4514C133.254 55.4277 132.998 54.2732 132.998 49.5393C132.998 44.8052 133.254 43.6543 134.15 42.6309C134.789 41.8633 135.942 41.3535 137.222 41.3535ZM174.965 44.4216L178.037 53.3792L171.893 53.3792L174.965 44.4216Z" fill="#FFFFFF" fill-opacity="1.000000" fill-rule="nonzero"/>
		<path id="Vector" d="M195.435 37.2585L195.435 59.6489L198.507 56.5769L198.507 37.2585L195.435 37.2585ZM201.579 37.2585L201.579 53.5085L204.647 50.4365L204.647 37.2585L201.579 37.2585ZM207.719 37.2585L207.719 47.3645L210.791 44.2961L210.791 37.2585L207.719 37.2585ZM213.86 37.2585L213.86 43.3989L220 43.3989L220 37.2585L213.86 37.2585ZM212.966 46.4709L209.894 49.5393L220 49.5393L220 46.4709L212.966 46.4709ZM206.822 52.6113L203.754 55.6833L220 55.6833L220 52.6113L206.822 52.6113ZM200.682 58.7517L197.61 61.8237L220 61.8237L220 58.7517L200.682 58.7517Z" fill="#FFFFFF" fill-opacity="1.000000" fill-rule="nonzero"/>
	</g>
</svg>
