<svg width="72.392761" height="105.050293" viewBox="0 0 72.3928 105.05" fill="none" xmlns="http://www.w3.org/2000/svg" xmlns:xlink="http://www.w3.org/1999/xlink">
	<desc>
			Created with Pixso.
	</desc>
	<defs/>
	<path id="Vector" d="M38.3911 76.5908C43.7851 76.5908 48.1578 80.9634 48.1578 86.3574C48.1578 91.7515 43.7851 96.124 38.3911 96.124L37.1924 96.124C31.7985 96.124 27.4258 91.7515 27.4258 86.3574C27.4258 80.9634 31.7985 76.5908 37.1924 76.5908L38.3911 76.5908Z" stroke="#00A3FF" stroke-opacity="1.000000" stroke-width="3.000000" stroke-linejoin="round"/>
	<path id="Vector" d="M44.8447 96.499C44.8447 100.394 41.6898 103.55 37.7934 103.55C33.8971 103.55 30.7422 100.394 30.7422 96.499" stroke="#00A3FF" stroke-opacity="1.000000" stroke-width="3.000000" stroke-linejoin="round" stroke-linecap="round"/>
	<path id="Vector" d="M9.08203 42.7871C9.91141 46.6475 11.9179 48.9038 14.8017 51.8735L14.8051 51.8721L14.8083 51.8706C28.2084 63.2427 27.3651 76.5913 27.3651 76.5913" stroke="#00A3FF" stroke-opacity="1.000000" stroke-width="3.000000" stroke-linejoin="round" stroke-linecap="round"/>
	<path id="Vector" d="M32.7869 8.12109C21.9825 9.99365 11.828 20.4907 9.86719 31.041" stroke="#00A3FF" stroke-opacity="1.000000" stroke-width="3.000000" stroke-linejoin="round" stroke-linecap="round"/>
	<path id="Vector" d="M65.9244 30.7529C64.006 20.1904 54.837 9.96826 44.043 8.04883" stroke="#00A3FF" stroke-opacity="1.000000" stroke-width="3.000000" stroke-linejoin="round" stroke-linecap="round"/>
	<path id="Vector" d="M48.1836 76.5913C48.1836 76.5913 48.1458 62.4868 60.78 51.1128L60.8073 51.1133L60.8366 51.1123C63.1567 48.3564 64.7915 46.2549 65.5189 42.7871" stroke="#00A3FF" stroke-opacity="1.000000" stroke-width="3.000000" stroke-linejoin="round" stroke-linecap="round"/>
	<path id="Vector" d="M37.793 60.6445L37.793 76.5908" stroke="#00A3FF" stroke-opacity="1.000000" stroke-width="3.000000" stroke-linejoin="round" stroke-linecap="round"/>
	<path id="Vector" d="M31.6401 8.03027L2.75781 8.03027" stroke="#00A3FF" stroke-opacity="1.000000" stroke-width="3.000000" stroke-linejoin="round" stroke-linecap="round"/>
	<path id="Vector" d="M65.9254 30.7524L65.8555 1.5" stroke="#00A3FF" stroke-opacity="1.000000" stroke-width="3.000000" stroke-linejoin="round" stroke-linecap="round"/>
	<path id="Vector" d="M68.601 1.5L62.8711 1.5" stroke="#00A3FF" stroke-opacity="1.000000" stroke-width="3.000000" stroke-linejoin="round" stroke-linecap="round"/>
	<path id="Vector" d="M1.5 4.96973L1.5 10.6997" stroke="#00A3FF" stroke-opacity="1.000000" stroke-width="3.000000" stroke-linejoin="round" stroke-linecap="round"/>
	<path id="Vector" d="M9.23438 72.6572L9.23438 42.8594" stroke="#00A3FF" stroke-opacity="1.000000" stroke-width="3.000000" stroke-linejoin="round" stroke-linecap="round"/>
	<path id="Vector" d="M6.53125 72.6572L11.9747 72.6572" stroke="#00A3FF" stroke-opacity="1.000000" stroke-width="3.000000" stroke-linejoin="round" stroke-linecap="round"/>
	<path id="Vector" d="M9.21533 31.4561C12.1071 31.4561 14.4514 33.8003 14.4514 36.6919C14.4514 39.584 12.1071 41.9282 9.21533 41.9282L9.13052 41.9282C6.23877 41.9282 3.89453 39.584 3.89453 36.6919C3.89453 33.8003 6.23877 31.4561 9.13052 31.4561L9.21533 31.4561Z" stroke="#00A3FF" stroke-opacity="1.000000" stroke-width="3.000000" stroke-linejoin="round"/>
	<path id="Vector" d="M65.6567 31.4561C68.5485 31.4561 70.8928 33.8003 70.8928 36.6919C70.8928 39.584 68.5485 41.9282 65.6567 41.9282L65.5719 41.9282C62.6802 41.9282 60.3359 39.584 60.3359 36.6919C60.3359 33.8003 62.6802 31.4561 65.5719 31.4561L65.6567 31.4561Z" stroke="#00A3FF" stroke-opacity="1.000000" stroke-width="3.000000" stroke-linejoin="round"/>
	<path id="Vector" d="M38.7231 2.2334C41.6149 2.2334 43.9592 4.57764 43.9592 7.46924C43.9592 10.3613 41.6149 12.7056 38.7231 12.7056L38.6383 12.7056C35.7466 12.7056 33.4023 10.3613 33.4023 7.46924C33.4023 4.57764 35.7466 2.2334 38.6383 2.2334L38.7231 2.2334Z" stroke="#00A3FF" stroke-opacity="1.000000" stroke-width="3.000000" stroke-linejoin="round"/>
</svg>
