<svg width="34.010742" height="34.010742" viewBox="0 0 34.0107 34.0107" fill="none" xmlns="http://www.w3.org/2000/svg" xmlns:xlink="http://www.w3.org/1999/xlink">
	<desc>
			Created with Pixso.
	</desc>
	<defs/>
	<rect id="Rectangle 2" rx="17.005371" width="34.010742" height="34.010742" fill="#FFFFFF" fill-opacity="1.000000"/>
	<path id="Vector" d="M22.9425 13.2896C22.9524 13.4409 22.9524 13.5918 22.9524 13.7432C22.9524 18.353 19.7361 23.6646 13.8578 23.6646C12.0468 23.6646 10.3644 23.0923 8.94922 22.0991C9.20654 22.1313 9.45392 22.1421 9.72113 22.1421C11.2155 22.1421 12.591 21.5918 13.6895 20.6523C12.2842 20.6201 11.1066 19.6162 10.7009 18.2339C10.8988 18.2666 11.0967 18.2881 11.3045 18.2881C11.5915 18.2881 11.8785 18.2451 12.1457 18.1694C10.6811 17.8452 9.58258 16.4419 9.58258 14.7471L9.58258 14.7041C10.0081 14.9629 10.5029 15.125 11.0274 15.1465C10.1664 14.5205 9.60236 13.4517 9.60236 12.2422C9.60236 11.5947 9.76068 11.001 10.0378 10.4824C11.6113 12.5986 13.9765 13.9805 16.6287 14.1318C16.5792 13.8726 16.5495 13.6025 16.5495 13.333C16.5495 11.4111 17.9745 9.8457 19.746 9.8457C20.6663 9.8457 21.4976 10.2666 22.0815 10.9468C22.8039 10.7959 23.4966 10.5044 24.1102 10.105C23.8727 10.9146 23.368 11.5947 22.705 12.0264C23.3482 11.9512 23.9717 11.7563 24.5457 11.4868C24.1103 12.1777 23.566 12.793 22.9425 13.2896Z" fill="#0E0E0E" fill-opacity="1.000000" fill-rule="nonzero"/>
</svg>
