<svg width="250.000000" height="100.000000" viewBox="0 0 250 100" fill="none" xmlns="http://www.w3.org/2000/svg" xmlns:xlink="http://www.w3.org/1999/xlink">
	<desc>
			Created with Pixso.
	</desc>
	<defs>
		<clipPath id="clip1_1107">
			<rect id="y_combinator_0dd7d14b20.svg" width="250.000000" height="100.000000" fill="white" fill-opacity="0"/>
		</clipPath>
	</defs>
	<g clip-path="url(#clip1_1107)">
		<path id="Vector" d="M12 27L57.12 27L57.12 72.4575L12 72.4575L12 27Z" fill="#FFFFFF" fill-opacity="1.000000" fill-rule="nonzero"/>
		<path id="Vector" d="M25.3896 38.3271C25.5773 38.2896 25.8022 38.2146 25.9897 38.2146C26.965 38.177 27.9402 38.252 28.9153 38.2896C29.0653 38.252 29.1404 38.4021 29.1779 38.5146C30.6405 41.5525 32.1034 44.6282 33.6035 47.666C33.9412 48.3037 34.2036 48.9414 34.5787 49.5415C34.8788 49.054 35.1414 48.5288 35.4038 48.0037C37.0917 44.7407 38.667 41.4775 40.3171 38.2146C41.4049 38.252 42.4926 38.1396 43.5802 38.3271C43.3927 38.9646 43.0177 39.4897 42.755 40.0898C40.5797 44.2532 38.3668 48.4163 36.1914 52.5793C36.1165 52.7295 36.079 52.917 36.079 53.1045C36.079 56.0674 36.079 59.0679 36.079 62.031C35.0288 62.031 33.9786 62.031 32.9285 62.031C32.9285 59.1431 32.9285 56.2175 32.9285 53.3296C32.9285 53.0295 32.9659 52.6919 32.7784 52.3918C30.7531 48.6038 28.7653 44.8157 26.74 40.99C26.2898 40.0898 25.8022 39.2271 25.3896 38.3271Z" fill="#292526" fill-opacity="1.000000" fill-rule="nonzero"/>
		<path id="Vector" d="M138.359 36.0015C138.771 36.0391 138.846 36.5264 138.884 36.8267C138.996 38.3643 139.034 39.8645 139.034 41.4023C139.109 42.865 139.109 44.2903 139.109 45.7532C139.934 45.1155 140.721 44.4404 141.697 44.0652C143.234 43.3901 145.11 43.3901 146.61 44.1777C148.223 45.0029 149.348 46.5781 149.91 48.2659C150.436 49.8787 150.586 51.604 150.473 53.2917C150.323 55.2798 149.798 57.2676 148.635 58.8804C147.96 59.8179 147.06 60.6431 145.935 61.0557C144.134 61.6931 142.147 61.4683 140.534 60.4556C140.046 60.1555 139.596 59.7053 139.146 59.3303C138.959 59.9304 138.809 60.4929 138.621 61.093C137.758 61.093 136.933 61.1682 136.071 61.0181C136.408 59.668 136.408 58.2427 136.446 56.855C136.521 51.9417 136.446 47.0283 136.408 42.1523C136.296 40.2397 136.446 38.3267 136.108 36.4514C136.896 36.2266 137.608 36.0015 138.359 36.0015ZM144.66 46.1282C143.909 45.978 143.159 45.978 142.409 46.053C141.059 46.2407 139.971 47.1782 139.109 48.1536C139.071 48.491 139.109 48.791 139.071 49.1287L139.071 56.9299C139.034 57.1924 139.259 57.3799 139.446 57.53C140.759 58.8052 142.709 59.4053 144.51 58.9553C145.372 58.7302 146.122 58.1677 146.535 57.3799C147.173 56.2922 147.398 55.0171 147.51 53.7793C147.585 52.8418 147.698 51.8665 147.585 50.929C147.548 49.8413 147.323 48.6785 146.76 47.741C146.31 46.9534 145.56 46.3157 144.66 46.1282ZM155.836 36.6765C156.362 36.489 156.962 36.5266 157.487 36.7515C157.974 37.0515 158.312 37.5017 158.537 38.0269C158.874 39.1519 157.974 40.4272 156.812 40.5771C155.911 40.6897 154.936 40.1646 154.674 39.2644C154.299 38.2893 154.861 37.0891 155.836 36.6765ZM75.8356 38.7393C77.1108 37.8767 78.6111 37.2017 80.1863 37.2017C81.7991 37.1641 83.4495 37.2766 84.9121 37.9893C85.5122 38.2517 86.1123 38.5518 86.6375 39.002C86.2623 39.6396 85.7748 40.2021 85.3247 40.7646C84.7246 40.4272 84.162 40.052 83.5244 39.8271C81.9491 39.2644 80.1488 39.1519 78.5736 39.7896C77.2609 40.3147 76.1732 41.3274 75.498 42.5652C75.048 43.4277 74.6354 44.3655 74.4479 45.3406C74.2979 46.2781 74.2228 47.2532 74.1853 48.2285C74.1478 49.5037 74.0729 50.8164 74.1478 52.0916C74.3729 53.8918 74.973 55.6921 76.2107 57.0425C77.2609 58.2803 78.8362 58.9927 80.449 59.1428C81.274 59.1802 82.1367 59.1802 82.9618 58.9927C83.9745 58.7678 84.8372 58.2427 85.7748 57.8301C86.2999 58.3552 86.7875 58.9553 87.2375 59.5928C86.5624 59.968 85.8499 60.343 85.0997 60.6431C83.1493 61.4307 80.9365 61.4683 78.8737 61.2432C77.3734 60.9431 75.9856 60.1555 74.8229 59.1802C73.4728 58.0176 72.4976 56.48 71.9351 54.792C71.5225 53.6667 71.335 52.4666 71.2223 51.304C71.1848 50.4038 71.0723 49.5413 71.1848 48.6411C71.2223 46.9534 71.485 45.303 72.16 43.7278C72.9102 41.7773 74.1104 39.9395 75.8356 38.7393Z" fill="#FFFFFF" fill-opacity="1.000000" fill-rule="nonzero"/>
		<path id="Vector" d="M199.869 39.6394C200.731 39.3767 201.632 39.1516 202.532 39.0017C202.382 40.6521 202.269 42.3022 202.232 43.99C203.619 44.0276 205.045 44.0276 206.432 44.0652C206.207 44.7026 205.945 45.3403 205.645 45.9404C204.445 45.9404 203.282 45.9404 202.082 45.9404C202.082 47.478 202.082 49.0159 202.082 50.5537C202.082 51.7539 202.157 52.9915 202.119 54.1917C202.157 55.5796 202.082 56.9673 202.232 58.3174C202.269 58.8801 202.794 59.2927 203.282 59.4426C204.145 59.6301 205.045 59.5552 205.87 59.3677C206.095 59.8552 206.207 60.4177 206.17 60.9429C205.42 61.3555 204.52 61.4304 203.657 61.5056C202.457 61.543 201.107 61.3555 200.244 60.4177C199.531 59.7427 199.606 58.6926 199.494 57.7922C199.419 55.842 199.456 53.8542 199.419 51.9038C199.419 49.916 199.419 47.8906 199.419 45.9028C198.669 45.9028 197.918 45.9028 197.168 45.9028C197.131 45.2654 197.131 44.5901 197.168 43.9524C197.918 43.9524 198.631 43.9524 199.381 43.9524C199.644 42.5273 199.644 41.0645 199.869 39.6394ZM97.3267 43.5774C98.0393 43.615 98.752 43.5774 99.4271 43.8025C101.002 44.3276 102.315 45.4153 103.14 46.8406C103.853 48.0781 104.34 49.4658 104.378 50.8911C104.453 52.804 104.528 54.7917 103.928 56.6296C103.365 58.355 102.165 59.8928 100.515 60.7554C98.902 61.5806 96.9517 61.7681 95.2264 61.2805C93.6511 60.8679 92.3009 59.8176 91.4008 58.4675C90.3881 57.0046 90.0505 55.2419 90.0131 53.479C89.9755 51.7913 89.938 50.0659 90.5006 48.4534C91.0258 46.8779 92.0383 45.4153 93.4636 44.5151C94.1012 44.1025 94.8138 43.7649 95.564 43.615C96.1641 43.54 96.7642 43.5774 97.3267 43.5774ZM95.9766 45.7529C95.0763 45.978 94.2137 46.5029 93.7261 47.2905C93.0135 48.4534 92.901 49.8411 92.826 51.1538C92.7509 52.1289 92.826 53.104 92.901 54.0791C93.051 55.2419 93.276 56.4795 93.8386 57.5298C94.4387 58.655 95.7139 59.2175 96.9517 59.2927C98.1143 59.3677 99.3896 59.0676 100.215 58.1675C100.89 57.4172 101.265 56.4795 101.415 55.467C101.602 54.2292 101.565 52.9915 101.527 51.7539C101.49 50.4785 101.377 49.1284 100.852 47.9282C100.552 47.1782 99.9897 46.5405 99.277 46.1655C98.3019 45.5654 97.0642 45.4902 95.9766 45.7529ZM109.066 44.1401C109.854 43.8774 110.641 43.6899 111.467 43.54C111.804 44.29 111.992 45.1152 112.067 45.9404C112.629 45.6404 113.042 45.1902 113.567 44.8528C114.73 43.99 116.155 43.4648 117.618 43.54C117.955 43.5774 118.255 43.6526 118.555 43.8025C119.043 44.0649 119.568 44.3276 119.98 44.7026C120.393 45.1152 120.693 45.6404 120.993 46.1655C121.668 45.8652 122.156 45.3403 122.756 44.9277C123.769 44.2151 124.931 43.6526 126.207 43.54C127.369 43.4275 128.532 43.8025 129.395 44.5901C129.77 44.9651 130.182 45.3403 130.37 45.8279C130.557 46.3154 130.632 46.8406 130.67 47.3657C130.857 50.1035 130.745 52.8789 130.857 55.6169C130.857 57.4548 130.857 59.2551 130.857 61.093C129.957 61.093 129.057 61.1304 128.119 61.093C128.119 58.355 128.119 55.6169 128.119 52.8789C128.119 51.1162 128.157 49.3535 128.007 47.5906C127.932 47.0281 127.632 46.5029 127.182 46.1655C126.657 45.8279 125.981 45.8655 125.381 45.9028C124.294 46.0154 123.431 46.6904 122.606 47.3281C122.231 47.6655 121.818 47.9658 121.443 48.3032C121.331 48.3784 121.368 48.5659 121.368 48.6782C121.368 52.804 121.368 56.9297 121.368 61.0554C120.468 61.0554 119.568 61.0554 118.668 61.0554L118.668 51.4163C118.668 50.6287 118.668 49.8411 118.63 49.0908C118.593 48.3032 118.668 47.4407 118.293 46.728C117.73 45.9404 116.642 45.7903 115.78 46.0154C114.43 46.353 113.229 47.1782 112.217 48.1157C112.067 48.2283 112.067 48.4158 112.067 48.6033C112.067 52.7666 112.067 56.9297 112.067 61.093C111.279 61.1304 110.491 61.1304 109.704 61.093C109.629 56.8547 109.666 52.5791 109.554 48.3032C109.516 47.3281 109.516 46.353 109.404 45.4153C109.291 44.9651 109.141 44.5525 109.066 44.1401ZM155.199 43.99C156.062 43.8774 156.924 43.7275 157.787 43.54C157.899 45.9404 157.862 48.3408 157.862 50.7412C157.862 54.1917 157.862 57.6423 157.862 61.093C156.962 61.1304 156.062 61.1304 155.161 61.093C155.124 56.1421 155.161 51.2288 155.161 46.2778C155.199 45.5278 155.161 44.7402 155.199 43.99ZM189.967 43.6526C191.805 43.99 193.38 45.6777 193.418 47.5906C193.53 50.4412 193.38 53.2915 193.418 56.1421L193.418 57.0046C193.418 57.5674 193.455 58.1299 193.605 58.6926C193.718 59.2551 194.243 59.5552 194.655 59.8928C194.28 60.4177 193.943 61.0178 193.455 61.468C193.155 61.7305 192.78 61.4304 192.555 61.2805C191.917 60.7927 191.467 60.0803 191.092 59.3677C190.492 59.7053 190.08 60.1926 189.48 60.5303C188.504 61.168 187.342 61.543 186.142 61.5056C185.091 61.543 184.004 61.3555 183.066 60.8679C181.528 60.0427 180.666 58.2424 180.703 56.5547C180.703 54.9043 181.528 53.2915 182.841 52.3164C184.416 51.1162 186.442 50.7412 188.354 50.5911C189.217 50.5161 190.117 50.5161 191.017 50.4785C191.055 49.616 190.98 48.7534 190.867 47.8906C190.755 47.1782 190.417 46.428 189.742 46.053C188.954 45.6404 188.017 45.6028 187.117 45.7529C185.466 45.9404 183.929 46.6531 182.578 47.6282C182.203 47.103 181.828 46.6155 181.528 46.053C181.378 45.7903 181.603 45.5654 181.828 45.4529C183.629 44.4402 185.616 43.5774 187.717 43.615L188.617 43.615C189.067 43.5774 189.517 43.5774 189.967 43.6526ZM188.842 52.2415C188.017 52.3164 187.154 52.354 186.367 52.5791C185.391 52.8416 184.491 53.479 183.966 54.3418C183.666 54.8293 183.666 55.4294 183.629 55.9919C183.629 56.592 183.554 57.2671 183.779 57.8298C184.004 58.4299 184.416 58.9924 185.016 59.2175C185.691 59.5176 186.479 59.5552 187.229 59.4802C188.129 59.3677 188.917 58.8801 189.592 58.355C190.155 57.8672 190.717 57.2671 190.755 56.4795C190.867 55.0918 190.83 53.7041 190.867 52.3164C190.192 52.3164 189.517 52.1665 188.842 52.2415ZM218.247 43.6899C219.785 44.0652 221.172 45.0027 222.073 46.2778C222.823 47.3281 223.31 48.5283 223.535 49.8035C223.723 51.0037 223.798 52.2415 223.723 53.4417C223.685 55.4294 223.085 57.4172 221.885 58.9924C220.91 60.2678 219.41 61.0178 217.872 61.3179C215.997 61.6555 213.971 61.3179 212.396 60.1926C211.008 59.2175 210.146 57.6423 209.658 56.0671C209.395 55.2419 209.358 54.4167 209.283 53.5542C209.245 52.1289 209.245 50.7036 209.508 49.3159C209.883 47.7407 210.671 46.2029 211.871 45.0776C212.771 44.2527 213.896 43.7275 215.096 43.5774C216.147 43.4648 217.197 43.5024 218.247 43.6899ZM215.284 45.7153C214.009 45.8655 212.996 46.8779 212.583 48.0408C212.058 49.2783 212.133 50.6287 212.096 51.9414C212.133 53.1792 212.133 54.4167 212.358 55.6545C212.508 56.4795 212.771 57.3047 213.334 57.9424C213.859 58.5801 214.646 58.9924 215.434 59.1426C215.734 59.2175 216.072 59.2551 216.372 59.2551L216.672 59.2551L216.972 59.2175C217.609 59.1426 218.209 58.9551 218.772 58.655C219.447 58.2798 219.935 57.5674 220.197 56.8547C220.535 55.9919 220.572 55.0544 220.647 54.1543C220.685 53.0667 220.722 51.979 220.647 50.8911C220.572 49.7661 220.422 48.6033 219.897 47.5906C219.41 46.8406 218.734 46.2029 217.909 45.8279C217.122 45.6028 216.184 45.6028 215.284 45.7153ZM228.336 44.1775C229.161 43.9524 229.949 43.6899 230.774 43.5024C231.224 44.3276 231.299 45.3027 231.337 46.2029C231.749 45.9028 232.087 45.4902 232.462 45.1152C233.624 43.9524 235.35 43.24 237 43.54L237 43.7649C236.625 44.5525 236.4 45.4153 236.062 46.2405C236.025 46.3904 235.8 46.353 235.687 46.353C234.975 46.353 234.187 46.353 233.549 46.728C232.912 47.103 232.349 47.5906 231.899 48.1907C231.449 48.7534 231.524 49.541 231.524 50.2161C231.487 51.1912 231.449 52.1665 231.487 53.1416C231.487 55.7671 231.487 58.4299 231.487 61.0554C230.586 61.093 229.686 61.093 228.786 61.0554C228.786 58.1299 228.786 55.167 228.786 52.2415C228.786 50.2537 228.786 48.2283 228.711 46.2405C228.636 45.5652 228.411 44.8901 228.336 44.1775ZM163.188 44.2151C163.975 43.9524 164.8 43.6526 165.626 43.6526C165.926 44.4402 166.113 45.2654 166.226 46.0903C166.938 45.6404 167.538 45.0403 168.289 44.6277C169.714 43.8025 171.439 43.2024 173.052 43.8025C173.989 44.1401 174.927 44.6653 175.49 45.5278C175.94 46.1279 176.052 46.9531 176.127 47.7031C176.277 50.3662 176.24 53.0291 176.24 55.7295C176.24 57.5298 176.277 59.2927 176.277 61.093C175.377 61.1304 174.477 61.1304 173.577 61.093C173.577 58.1675 173.502 55.2043 173.502 52.2788C173.464 50.6287 173.539 49.0159 173.352 47.3657C173.089 46.5781 172.339 45.9404 171.514 45.9028C170.914 45.8655 170.276 45.8655 169.676 46.0903C168.401 46.5781 167.238 47.3657 166.188 48.2283C166.151 52.5039 166.188 56.8171 166.188 61.093C165.401 61.093 164.613 61.1304 163.825 61.093C163.825 58.655 163.75 56.217 163.75 53.7793C163.713 51.2664 163.75 48.7908 163.6 46.2778C163.563 45.5654 163.338 44.8901 163.188 44.2151Z" fill="#FFFFFF" fill-opacity="1.000000" fill-rule="nonzero"/>
		<path id="Vector" d="M12 27L57.12 27L57.12 72.4575L12 72.4575L12 27Z" fill="#FFFFFF" fill-opacity="1.000000" fill-rule="nonzero"/>
		<path id="Vector" d="M25.3906 38.3269C25.5782 38.2893 25.8032 38.2144 25.9907 38.2144C26.9659 38.1768 27.9412 38.2517 28.9163 38.2893C29.0663 38.2517 29.1414 38.4019 29.1788 38.5144C30.6415 41.5522 32.1044 44.6279 33.6045 47.6658C33.9421 48.3035 34.2046 48.9412 34.5797 49.5413C34.8798 49.0537 35.1423 48.5286 35.4048 48.0034C37.0927 44.7405 38.668 41.4773 40.3181 38.2144C41.4059 38.2517 42.4935 38.1394 43.5812 38.3269C43.3937 38.9644 43.0187 39.4895 42.756 40.0896C40.5807 44.2529 38.3678 48.416 36.1924 52.5791C36.1174 52.7292 36.08 52.9167 36.08 53.1042C36.08 56.0671 36.08 59.0676 36.08 62.0308C35.0298 62.0308 33.9796 62.0308 32.9294 62.0308C32.9294 59.1428 32.9294 56.2173 32.9294 53.3293C32.9294 53.0293 32.9669 52.6917 32.7794 52.3916C30.754 48.6035 28.7662 44.8154 26.741 40.9897C26.2908 40.0896 25.8032 39.2268 25.3906 38.3269Z" fill="#292526" fill-opacity="1.000000" fill-rule="nonzero"/>
		<path id="Vector" d="M138.36 36.002C138.772 36.0396 138.847 36.5269 138.885 36.8271C138.997 38.3647 139.035 39.865 139.035 41.4028C139.11 42.8655 139.11 44.2908 139.11 45.7537C139.935 45.116 140.722 44.4409 141.698 44.0657C143.235 43.3906 145.111 43.3906 146.611 44.1782C148.224 45.0034 149.349 46.5786 149.911 48.2664C150.437 49.8792 150.587 51.6045 150.474 53.2922C150.324 55.2803 149.799 57.2681 148.636 58.8809C147.961 59.8184 147.061 60.6436 145.936 61.0562C144.135 61.6936 142.148 61.4688 140.535 60.4561C140.047 60.156 139.597 59.7058 139.147 59.3308C138.96 59.9309 138.81 60.4934 138.622 61.0935C137.759 61.0935 136.934 61.1687 136.072 61.0186C136.409 59.6685 136.409 58.2432 136.447 56.8555C136.522 51.9421 136.447 47.0288 136.409 42.1528C136.297 40.2402 136.447 38.3271 136.109 36.4519C136.897 36.2271 137.609 36.002 138.36 36.002ZM144.661 46.1287C143.91 45.9785 143.16 45.9785 142.41 46.0535C141.06 46.2412 139.972 47.1787 139.11 48.1541C139.072 48.4915 139.11 48.7915 139.072 49.1292L139.072 56.9304C139.035 57.1929 139.26 57.3804 139.447 57.5305C140.76 58.8057 142.71 59.4058 144.511 58.9558C145.373 58.7307 146.123 58.1682 146.536 57.3804C147.174 56.2927 147.399 55.0176 147.511 53.7798C147.586 52.8423 147.699 51.8669 147.586 50.9294C147.549 49.8418 147.324 48.679 146.761 47.7415C146.311 46.9539 145.561 46.3162 144.661 46.1287ZM155.837 36.677C156.363 36.4895 156.963 36.5271 157.488 36.752C157.975 37.052 158.313 37.5022 158.538 38.0273C158.875 39.1523 157.975 40.4277 156.813 40.5776C155.912 40.6902 154.937 40.165 154.675 39.2649C154.3 38.2898 154.862 37.0896 155.837 36.677ZM75.8362 38.7397C77.1115 37.8772 78.6117 37.2021 80.1869 37.2021C81.7997 37.1646 83.4501 37.2771 84.9127 37.9897C85.5128 38.2522 86.1129 38.5522 86.6381 39.0024C86.2629 39.6401 85.7754 40.2026 85.3253 40.7651C84.7252 40.4277 84.1626 40.0525 83.525 39.8276C81.9497 39.2649 80.1494 39.1523 78.5742 39.79C77.2615 40.3152 76.1738 41.3279 75.4987 42.5657C75.0486 43.4282 74.636 44.366 74.4485 45.3411C74.2985 46.2786 74.2234 47.2537 74.1859 48.229C74.1484 49.5042 74.0735 50.8169 74.1484 52.092C74.3735 53.8923 74.9736 55.6926 76.2113 57.043C77.2615 58.2808 78.8368 58.9932 80.4496 59.1433C81.2747 59.1807 82.1373 59.1807 82.9624 58.9932C83.9751 58.7683 84.8378 58.2432 85.7754 57.8306C86.3005 58.3557 86.7881 58.9558 87.2382 59.5933C86.563 59.9685 85.8505 60.3435 85.1003 60.6436C83.1499 61.4312 80.9371 61.4688 78.8743 61.2437C77.374 60.9436 75.9862 60.156 74.8235 59.1807C73.4734 58.0181 72.4982 56.4805 71.9357 54.7925C71.5231 53.6672 71.3356 52.467 71.2229 51.3044C71.1854 50.4043 71.0729 49.5417 71.1854 48.6416C71.2229 46.9539 71.4856 45.3035 72.1606 43.7283C72.9108 41.7778 74.111 39.9399 75.8362 38.7397Z" fill="#FFFFFF" fill-opacity="1.000000" fill-rule="nonzero"/>
		<path id="Vector" d="M199.871 39.6396C200.733 39.377 201.634 39.1519 202.534 39.002C202.384 40.6523 202.271 42.3025 202.234 43.9902C203.621 44.0278 205.047 44.0278 206.434 44.0654C206.209 44.7029 205.947 45.3406 205.647 45.9407C204.447 45.9407 203.284 45.9407 202.084 45.9407C202.084 47.4783 202.084 49.0161 202.084 50.554C202.084 51.7542 202.159 52.9917 202.121 54.1919C202.159 55.5798 202.084 56.9675 202.234 58.3176C202.271 58.8804 202.796 59.293 203.284 59.4429C204.147 59.6304 205.047 59.5554 205.872 59.3679C206.097 59.8555 206.209 60.418 206.172 60.9431C205.422 61.3557 204.522 61.4307 203.659 61.5059C202.459 61.5432 201.109 61.3557 200.246 60.418C199.533 59.7429 199.608 58.6929 199.496 57.7925C199.421 55.8423 199.458 53.8545 199.421 51.9041C199.421 49.9163 199.421 47.8909 199.421 45.9031C198.671 45.9031 197.92 45.9031 197.17 45.9031C197.133 45.2656 197.133 44.5903 197.17 43.9526C197.92 43.9526 198.633 43.9526 199.383 43.9526C199.646 42.5276 199.646 41.0647 199.871 39.6396ZM97.3285 43.5776C98.0411 43.6152 98.7538 43.5776 99.429 43.8027C101.004 44.3279 102.317 45.4155 103.142 46.8408C103.855 48.0784 104.342 49.4661 104.38 50.8914C104.455 52.8042 104.53 54.792 103.93 56.6299C103.367 58.3552 102.167 59.8931 100.517 60.7556C98.9038 61.5808 96.9535 61.7683 95.2283 61.2808C93.653 60.8682 92.3027 59.8179 91.4026 58.4678C90.3899 57.0049 90.0524 55.2422 90.0149 53.4792C89.9773 51.7915 89.9398 50.0662 90.5024 48.4536C91.0276 46.8782 92.0402 45.4155 93.4655 44.5154C94.103 44.1028 94.8157 43.7651 95.5658 43.6152C96.1659 43.5403 96.766 43.5776 97.3285 43.5776ZM95.9784 45.7529C95.0781 45.9783 94.2156 46.5032 93.7279 47.2908C93.0154 48.4536 92.9028 49.8413 92.8279 51.1541C92.7527 52.1292 92.8279 53.1042 92.9028 54.0793C93.0529 55.2422 93.2778 56.4797 93.8405 57.53C94.4406 58.6553 95.7157 59.2178 96.9535 59.293C98.1161 59.3679 99.3915 59.0679 100.217 58.1677C100.892 57.4175 101.267 56.4797 101.417 55.4673C101.604 54.2295 101.567 52.9917 101.529 51.7542C101.492 50.4788 101.379 49.1287 100.854 47.9285C100.554 47.1785 99.9916 46.5408 99.2788 46.1658C98.3037 45.5657 97.066 45.4905 95.9784 45.7529ZM109.068 44.1404C109.856 43.8777 110.643 43.6902 111.469 43.5403C111.806 44.2903 111.994 45.1155 112.069 45.9407C112.631 45.6406 113.044 45.1904 113.569 44.853C114.732 43.9902 116.157 43.4651 117.62 43.5403C117.957 43.5776 118.257 43.6528 118.557 43.8027C119.045 44.0652 119.57 44.3279 119.982 44.7029C120.395 45.1155 120.695 45.6406 120.995 46.1658C121.67 45.8655 122.158 45.3406 122.758 44.928C123.771 44.2153 124.933 43.6528 126.209 43.5403C127.371 43.4277 128.534 43.8027 129.397 44.5903C129.772 44.9653 130.184 45.3406 130.372 45.8281C130.559 46.3157 130.634 46.8408 130.672 47.366C130.859 50.1038 130.747 52.8792 130.859 55.6172C130.859 57.4551 130.859 59.2554 130.859 61.0933C129.959 61.0933 129.059 61.1306 128.121 61.0933C128.121 58.3552 128.121 55.6172 128.121 52.8792C128.121 51.1165 128.159 49.3538 128.009 47.5908C127.934 47.0283 127.634 46.5032 127.184 46.1658C126.659 45.8281 125.983 45.8657 125.383 45.9031C124.296 46.0156 123.433 46.6907 122.608 47.3284C122.233 47.6658 121.82 47.9661 121.445 48.3035C121.333 48.3787 121.37 48.5662 121.37 48.6785C121.37 52.8042 121.37 56.9299 121.37 61.0557C120.47 61.0557 119.57 61.0557 118.67 61.0557L118.67 51.4165C118.67 50.6289 118.67 49.8413 118.632 49.0911C118.595 48.3035 118.67 47.4409 118.295 46.7283C117.732 45.9407 116.644 45.7905 115.782 46.0156C114.432 46.3533 113.231 47.1785 112.219 48.116C112.069 48.2285 112.069 48.416 112.069 48.6035C112.069 52.7668 112.069 56.9299 112.069 61.0933C111.281 61.1306 110.493 61.1306 109.706 61.0933C109.631 56.855 109.668 52.5793 109.556 48.3035C109.518 47.3284 109.518 46.3533 109.406 45.4155C109.293 44.9653 109.143 44.5527 109.068 44.1404ZM155.201 43.9902C156.064 43.8777 156.926 43.7278 157.789 43.5403C157.901 45.9407 157.864 48.3411 157.864 50.7415C157.864 54.1919 157.864 57.6426 157.864 61.0933C156.964 61.1306 156.064 61.1306 155.163 61.0933C155.126 56.1423 155.163 51.229 155.163 46.2781C155.201 45.5281 155.163 44.7405 155.201 43.9902ZM189.969 43.6528C191.807 43.9902 193.382 45.678 193.42 47.5908C193.532 50.4414 193.382 53.2917 193.42 56.1423L193.42 57.0049C193.42 57.5676 193.457 58.1301 193.607 58.6929C193.72 59.2554 194.245 59.5554 194.657 59.8931C194.282 60.418 193.945 61.0181 193.457 61.4683C193.157 61.7307 192.782 61.4307 192.557 61.2808C191.919 60.793 191.469 60.0806 191.094 59.3679C190.494 59.7056 190.082 60.1929 189.482 60.5305C188.506 61.1682 187.344 61.5432 186.144 61.5059C185.093 61.5432 184.006 61.3557 183.068 60.8682C181.53 60.043 180.668 58.2427 180.705 56.5549C180.705 54.9045 181.53 53.2917 182.843 52.3167C184.418 51.1165 186.444 50.7415 188.356 50.5913C189.219 50.5164 190.119 50.5164 191.019 50.4788C191.057 49.6162 190.982 48.7537 190.869 47.8909C190.757 47.1785 190.419 46.4282 189.744 46.0532C188.956 45.6406 188.019 45.603 187.119 45.7529C185.468 45.9407 183.931 46.6533 182.58 47.6284C182.205 47.1033 181.83 46.6157 181.53 46.0532C181.38 45.7905 181.605 45.5657 181.83 45.4531C183.631 44.4404 185.618 43.5776 187.719 43.6152L188.619 43.6152C189.069 43.5776 189.519 43.5776 189.969 43.6528ZM188.844 52.2417C188.019 52.3167 187.156 52.3542 186.369 52.5793C185.393 52.8418 184.493 53.4792 183.968 54.342C183.668 54.8296 183.668 55.4297 183.631 55.9922C183.631 56.5923 183.556 57.2673 183.781 57.8301C184.006 58.4302 184.418 58.9927 185.018 59.2178C185.693 59.5178 186.481 59.5554 187.231 59.4805C188.131 59.3679 188.919 58.8804 189.594 58.3552C190.157 57.8674 190.719 57.2673 190.757 56.4797C190.869 55.092 190.832 53.7043 190.869 52.3167C190.194 52.3167 189.519 52.1667 188.844 52.2417ZM218.249 43.6902C219.787 44.0654 221.174 45.0029 222.075 46.2781C222.825 47.3284 223.312 48.5286 223.537 49.8037C223.725 51.0039 223.8 52.2417 223.725 53.4419C223.687 55.4297 223.087 57.4175 221.887 58.9927C220.912 60.2681 219.412 61.0181 217.874 61.3181C215.999 61.6558 213.973 61.3181 212.398 60.1929C211.01 59.2178 210.148 57.6426 209.66 56.0674C209.397 55.2422 209.36 54.417 209.285 53.5544C209.247 52.1292 209.247 50.7039 209.51 49.3162C209.885 47.741 210.673 46.2031 211.873 45.0779C212.773 44.2529 213.898 43.7278 215.098 43.5776C216.149 43.4651 217.199 43.5027 218.249 43.6902ZM215.286 45.7156C214.011 45.8657 212.998 46.8782 212.585 48.041C212.06 49.2786 212.135 50.6289 212.098 51.9417C212.135 53.1794 212.135 54.417 212.36 55.6548C212.51 56.4797 212.773 57.3052 213.336 57.9426C213.861 58.5803 214.648 58.9927 215.436 59.1428C215.736 59.2178 216.074 59.2554 216.374 59.2554L216.674 59.2554L216.974 59.2178C217.611 59.1428 218.211 58.9553 218.774 58.6553C219.449 58.2803 219.937 57.5676 220.199 56.855C220.537 55.9922 220.574 55.0547 220.649 54.1545C220.687 53.0669 220.724 51.9792 220.649 50.8914C220.574 49.7664 220.424 48.6035 219.899 47.5908C219.412 46.8408 218.736 46.2031 217.911 45.8281C217.124 45.603 216.186 45.603 215.286 45.7156ZM228.338 44.1777C229.163 43.9526 229.951 43.6902 230.776 43.5027C231.226 44.3279 231.301 45.303 231.339 46.2031C231.751 45.9031 232.089 45.4905 232.464 45.1155C233.626 43.9526 235.352 43.2402 237.002 43.5403L237.002 43.7651C236.627 44.5527 236.402 45.4155 236.064 46.2407C236.027 46.3906 235.802 46.3533 235.689 46.3533C234.977 46.3533 234.189 46.3533 233.551 46.7283C232.914 47.1033 232.351 47.5908 231.901 48.1909C231.451 48.7537 231.526 49.5413 231.526 50.2163C231.489 51.1914 231.451 52.1667 231.489 53.1418C231.489 55.7673 231.489 58.4302 231.489 61.0557C230.588 61.0933 229.688 61.0933 228.788 61.0557C228.788 58.1301 228.788 55.1672 228.788 52.2417C228.788 50.2539 228.788 48.2285 228.713 46.2407C228.638 45.5654 228.413 44.8904 228.338 44.1777ZM163.19 44.2153C163.977 43.9526 164.802 43.6528 165.628 43.6528C165.928 44.4404 166.115 45.2656 166.228 46.0906C166.94 45.6406 167.54 45.0405 168.291 44.6279C169.716 43.8027 171.441 43.2026 173.054 43.8027C173.991 44.1404 174.929 44.6655 175.492 45.5281C175.942 46.1282 176.054 46.9534 176.129 47.7034C176.279 50.3665 176.242 53.0293 176.242 55.7297C176.242 57.53 176.279 59.293 176.279 61.0933C175.379 61.1306 174.479 61.1306 173.579 61.0933C173.579 58.1677 173.504 55.2046 173.504 52.2791C173.466 50.6289 173.541 49.0161 173.354 47.366C173.091 46.5784 172.341 45.9407 171.516 45.9031C170.916 45.8657 170.278 45.8657 169.678 46.0906C168.403 46.5784 167.24 47.366 166.19 48.2285C166.153 52.5042 166.19 56.8174 166.19 61.0933C165.403 61.0933 164.615 61.1306 163.827 61.0933C163.827 58.6553 163.752 56.2173 163.752 53.7795C163.715 51.2666 163.752 48.791 163.602 46.2781C163.565 45.5657 163.34 44.8904 163.19 44.2153Z" fill="#FFFFFF" fill-opacity="1.000000" fill-rule="nonzero"/>
	</g>
</svg>
