<svg viewBox="0 0 13.3 7.2998" fill="none" xmlns="http://www.w3.org/2000/svg" xmlns:xlink="http://www.w3.org/1999/xlink">
	<desc>
			Created with Pixso.
	</desc>
	<defs/>
	<path id="Vector" d="M13.017 0.285156C12.8378 0.10498 12.5467 0.10498 12.3675 0.285156L6.65631 6.04541L0.933899 0.285156C0.754761 0.10498 0.463562 0.10498 0.284424 0.285156C0.105225 0.465332 0.105225 0.758789 0.284424 0.938965L6.32037 7.01465C6.40991 7.10498 6.52191 7.1499 6.64508 7.1499C6.75708 7.1499 6.88025 7.10498 6.96985 7.01465L13.0058 0.938965C13.1962 0.758789 13.1962 0.465332 13.017 0.285156Z" fill="#00A3FF" fill-opacity="1.000000" fill-rule="nonzero"/>
	<path id="Vector" d="M12.3675 0.285156L6.65631 6.04541L0.933899 0.285156C0.754761 0.10498 0.463562 0.10498 0.284424 0.285156C0.105225 0.465332 0.105225 0.758789 0.284424 0.938965L6.32037 7.01465C6.40991 7.10498 6.52191 7.1499 6.64508 7.1499C6.75708 7.1499 6.88025 7.10498 6.96985 7.01465L13.0058 0.938965C13.1962 0.758789 13.1962 0.465332 13.017 0.285156C12.8378 0.10498 12.5467 0.10498 12.3675 0.285156Z" stroke="#00A3FF" stroke-opacity="1.000000" stroke-width="0.300000"/>
</svg>
